<svg width="42" height="49" viewBox="0 0 42 49" fill="none" xmlns="http://www.w3.org/2000/svg">
<rect width="42" height="49" fill="#E5E5E5"/>
<g id="guias y estilos" clip-path="url(#clip0)">
<rect width="2476" height="2444" transform="translate(-2044 -2065)" fill="white"/>
<path id="account" d="M18.7884 16.8561C18.7884 22.5938 23.4022 27.2602 29.0752 27.2602C34.7482 27.2602 39.362 22.5938 39.362 16.8561C39.362 11.1184 34.7482 6.45208 29.0752 6.45208C23.4022 6.45208 18.7884 11.1184 18.7884 16.8561ZM37.8084 16.8561C37.8084 21.713 33.9008 25.6651 29.0988 25.6651C24.2967 25.6651 20.3891 21.713 20.3891 16.8561C20.3891 11.9993 24.2967 8.04721 29.0988 8.04721C33.9008 8.04721 37.8084 11.9993 37.8084 16.8561ZM29.0752 11.4994C29.4989 11.4994 29.852 11.8565 29.852 12.285V12.6183C30.7701 12.9516 31.4292 13.8325 31.4292 14.8563C31.4292 15.2848 31.0761 15.6419 30.6524 15.6419C30.2287 15.6419 29.8756 15.2848 29.8756 14.8563C29.8756 14.4277 29.5225 14.0706 29.0988 14.0706C28.675 14.0706 28.322 14.4277 28.322 14.8563V15.1658C28.322 15.5229 28.5338 15.8086 28.8634 15.9276L29.8049 16.2133C30.7936 16.5228 31.4527 17.4275 31.4527 18.4751V18.7846C31.4527 19.9274 30.6524 20.8797 29.5931 21.1178V21.3796C29.5931 21.8082 29.24 22.1653 28.8163 22.1653C28.3926 22.1653 28.0395 21.8082 28.0395 21.3796V20.9273C27.2862 20.5226 26.7683 19.7369 26.7683 18.8084C26.7683 18.3798 27.1214 18.0227 27.5451 18.0227C27.9689 18.0227 28.322 18.3798 28.322 18.8084C28.322 19.2369 28.675 19.594 29.0988 19.594C29.5225 19.594 29.8756 19.2369 29.8756 18.8084V18.4989C29.8756 18.1418 29.6637 17.8561 29.3342 17.737L28.3926 17.4513C27.4039 17.1418 26.7448 16.2371 26.7448 15.1896V14.8801C26.7448 13.8563 27.4039 12.9754 28.322 12.6421V12.3088C28.2984 11.8565 28.6515 11.4994 29.0752 11.4994ZM41.8101 32.4979V42.5925C41.8101 45.6399 39.3385 48.1397 36.3254 48.1397H6.17124C3.15817 48.1397 0.686523 45.6399 0.686523 42.5925V3.78559C0.686523 2.04762 2.0989 0.619141 3.81728 0.619141H29.2871C31.0055 0.619141 32.4178 2.04762 32.4178 3.78559C32.4178 4.21414 32.0647 4.57125 31.641 4.57125C31.2173 4.57125 30.8642 4.21414 30.8642 3.78559C30.8642 2.9047 30.158 2.19046 29.2871 2.19046H3.81728C2.94632 2.19046 2.24013 2.9047 2.24013 3.78559V42.5925C2.24013 44.7828 4.0056 46.5446 6.1477 46.5446H32.4649C31.4527 45.5447 30.8171 44.14 30.8171 42.5925V30.2124C30.8171 29.7838 31.1702 29.4267 31.5939 29.4267C32.0177 29.4267 32.3708 29.7838 32.3708 30.2124V42.5925C32.3708 44.7828 34.1362 46.5446 36.2783 46.5446C38.4204 46.5446 40.1859 44.759 40.1859 42.5925V32.4979C40.1859 31.617 39.4797 30.9028 38.6087 30.9028H35.2897C34.8659 30.9028 34.5129 30.5457 34.5129 30.1171C34.5129 29.6886 34.8659 29.3315 35.2897 29.3315H38.6087C40.3977 29.3315 41.8101 30.76 41.8101 32.4979ZM7.53653 21.9034C7.53653 21.4749 7.88963 21.1178 8.31334 21.1178H14.975C15.3987 21.1178 15.7518 21.4749 15.7518 21.9034C15.7518 22.332 15.3987 22.6891 14.975 22.6891H8.31334C7.88963 22.6891 7.53653 22.332 7.53653 21.9034ZM7.53653 12.9993C7.53653 12.5707 7.88963 12.2136 8.31334 12.2136H14.975C15.3987 12.2136 15.7518 12.5707 15.7518 12.9993C15.7518 13.4278 15.3987 13.7849 14.975 13.7849H8.31334C7.88963 13.7849 7.53653 13.4278 7.53653 12.9993ZM25.5678 30.8076C25.5678 31.2361 25.2147 31.5932 24.791 31.5932H8.31334C7.88963 31.5932 7.53653 31.2361 7.53653 30.8076C7.53653 30.379 7.88963 30.0219 8.31334 30.0219H24.7675C25.2147 30.0219 25.5678 30.379 25.5678 30.8076ZM25.5678 39.1403C25.5678 39.5689 25.2147 39.926 24.791 39.926H8.31334C7.88963 39.926 7.53653 39.5689 7.53653 39.1403C7.53653 38.7118 7.88963 38.3547 8.31334 38.3547H24.7675C25.2147 38.3547 25.5678 38.688 25.5678 39.1403Z" fill="white"/>
</g>
<defs>
<clipPath id="clip0">
<rect width="2476" height="2444" fill="white" transform="translate(-2044 -2065)"/>
</clipPath>
</defs>
</svg>
