<svg width="16" height="18" viewBox="0 0 16 18" fill="none" xmlns="http://www.w3.org/2000/svg">
<mask id="path-1-inside-1" fill="white">
<path d="M15.7123 12.555H11.6846V10.4377C11.6846 9.52962 12.393 8.79355 13.2669 8.79355C14.1408 8.79355 14.8492 9.52965 14.8492 10.4377V10.7614C14.8492 10.9265 14.9779 11.0603 15.1368 11.0603C15.2957 11.0603 15.4245 10.9265 15.4245 10.7614V10.4377C15.4245 9.19945 14.4585 8.19568 13.2668 8.19568C12.0752 8.19568 11.1091 9.19945 11.1091 10.4377V12.555H10.8215C10.6626 12.555 10.5338 12.6888 10.5338 12.8539V16.1421C10.5349 17.1322 11.3071 17.9346 12.26 17.9357H14.2738C15.2267 17.9346 15.9988 17.1322 15.9999 16.1421V12.8539C15.9999 12.6888 15.8712 12.555 15.7123 12.555ZM15.4246 16.1421C15.4246 16.8025 14.9093 17.3378 14.2738 17.3378H12.26C11.6244 17.3378 11.1092 16.8025 11.1092 16.1421V13.1529H15.4246V16.1421H15.4246Z"/>
</mask>
<path d="M15.7123 12.555H11.6846V10.4377C11.6846 9.52962 12.393 8.79355 13.2669 8.79355C14.1408 8.79355 14.8492 9.52965 14.8492 10.4377V10.7614C14.8492 10.9265 14.9779 11.0603 15.1368 11.0603C15.2957 11.0603 15.4245 10.9265 15.4245 10.7614V10.4377C15.4245 9.19945 14.4585 8.19568 13.2668 8.19568C12.0752 8.19568 11.1091 9.19945 11.1091 10.4377V12.555H10.8215C10.6626 12.555 10.5338 12.6888 10.5338 12.8539V16.1421C10.5349 17.1322 11.3071 17.9346 12.26 17.9357H14.2738C15.2267 17.9346 15.9988 17.1322 15.9999 16.1421V12.8539C15.9999 12.6888 15.8712 12.555 15.7123 12.555ZM15.4246 16.1421C15.4246 16.8025 14.9093 17.3378 14.2738 17.3378H12.26C11.6244 17.3378 11.1092 16.8025 11.1092 16.1421V13.1529H15.4246V16.1421H15.4246Z" fill="#3A3A3A"/>
<path d="M11.6846 12.555H9.68457V14.555H11.6846V12.555ZM11.1091 12.555V14.555H13.1091V12.555H11.1091ZM10.5338 16.1421H8.53381L8.53381 16.1444L10.5338 16.1421ZM12.26 17.9357L12.2575 19.9357H12.26V17.9357ZM14.2738 17.9357V19.9357L14.2762 19.9357L14.2738 17.9357ZM15.9999 16.1421L17.9999 16.1444V16.1421H15.9999ZM15.4246 16.1421V14.1421H13.4246V16.1421H15.4246ZM11.1092 13.1529V11.1529H9.10921V13.1529H11.1092ZM15.4246 13.1529H17.4246V11.1529H15.4246V13.1529ZM15.4246 16.1421V18.1421H17.4246V16.1421H15.4246ZM15.7123 10.555H11.6846V14.555H15.7123V10.555ZM13.6846 12.555V10.4377H9.68457V12.555H13.6846ZM13.6846 10.4377C13.6846 10.5613 13.5691 10.7935 13.2669 10.7935V6.79355C11.2169 6.79355 9.68457 8.49794 9.68457 10.4377H13.6846ZM13.2669 10.7935C12.9646 10.7935 12.8492 10.5613 12.8492 10.4377H16.8492C16.8492 8.49804 15.3169 6.79355 13.2669 6.79355V10.7935ZM12.8492 10.4377V10.7614H16.8492V10.4377H12.8492ZM12.8492 10.7614C12.8492 11.9582 13.8018 13.0603 15.1368 13.0603V9.06032C16.154 9.06032 16.8492 9.89485 16.8492 10.7614H12.8492ZM15.1368 13.0603C16.4718 13.0603 17.4245 11.9582 17.4245 10.7614H13.4245C13.4245 9.89486 14.1196 9.06032 15.1368 9.06032V13.0603ZM17.4245 10.7614V10.4377H13.4245V10.7614H17.4245ZM17.4245 10.4377C17.4245 8.16781 15.6346 6.19568 13.2668 6.19568V10.1957C13.2852 10.1957 13.314 10.2003 13.3515 10.2392C13.3903 10.2795 13.4245 10.3456 13.4245 10.4377H17.4245ZM13.2668 6.19568C10.8991 6.19568 9.10914 8.16781 9.10914 10.4377H13.1091C13.1091 10.3456 13.1434 10.2795 13.1822 10.2392C13.2196 10.2003 13.2485 10.1957 13.2668 10.1957V6.19568ZM9.10914 10.4377V12.555H13.1091V10.4377H9.10914ZM11.1091 10.555H10.8215V14.555H11.1091V10.555ZM10.8215 10.555C9.48648 10.555 8.53381 11.6572 8.53381 12.8539H12.5338C12.5338 13.7204 11.8387 14.555 10.8215 14.555V10.555ZM8.53381 12.8539V16.1421H12.5338V12.8539H8.53381ZM8.53381 16.1444C8.53608 18.1645 10.1306 19.9331 12.2575 19.9357L12.2624 15.9357C12.3624 15.9358 12.4408 15.9811 12.481 16.0229C12.5199 16.0633 12.5338 16.1087 12.5338 16.1399L8.53381 16.1444ZM12.26 19.9357H14.2738V15.9357H12.26V19.9357ZM14.2762 19.9357C16.4031 19.9331 17.9977 18.1645 17.9999 16.1444L13.9999 16.1399C14 16.1087 14.0138 16.0633 14.0527 16.0229C14.0929 15.9811 14.1713 15.9358 14.2714 15.9357L14.2762 19.9357ZM17.9999 16.1421V12.8539H13.9999V16.1421H17.9999ZM17.9999 12.8539C17.9999 11.6574 17.0474 10.555 15.7123 10.555V14.555C14.6949 14.555 13.9999 13.7203 13.9999 12.8539H17.9999ZM13.4246 16.1421C13.4246 15.7709 13.7332 15.3378 14.2738 15.3378V19.3378C16.0854 19.3378 17.4246 17.8341 17.4246 16.1421H13.4246ZM14.2738 15.3378H12.26V19.3378H14.2738V15.3378ZM12.26 15.3378C12.8005 15.3378 13.1092 15.7709 13.1092 16.1421H9.10921C9.10921 17.8341 10.4483 19.3378 12.26 19.3378V15.3378ZM13.1092 16.1421V13.1529H9.10921V16.1421H13.1092ZM11.1092 15.1529H15.4246V11.1529H11.1092V15.1529ZM13.4246 13.1529V16.1421H17.4246V13.1529H13.4246ZM15.4246 14.1421H15.4246V18.1421H15.4246V14.1421Z" fill="black" mask="url(#path-1-inside-1)"/>
<mask id="path-3-inside-2" fill="white">
<path d="M12.2735 14.6475H14.2603C14.4192 14.6475 14.548 14.5137 14.548 14.3486C14.548 14.1835 14.4192 14.0497 14.2603 14.0497H12.2735C12.1146 14.0497 11.9858 14.1835 11.9858 14.3486C11.9858 14.5137 12.1146 14.6475 12.2735 14.6475Z"/>
</mask>
<path d="M12.2735 14.6475H14.2603C14.4192 14.6475 14.548 14.5137 14.548 14.3486C14.548 14.1835 14.4192 14.0497 14.2603 14.0497H12.2735C12.1146 14.0497 11.9858 14.1835 11.9858 14.3486C11.9858 14.5137 12.1146 14.6475 12.2735 14.6475Z" fill="#3A3A3A"/>
<path d="M12.2735 16.6475H14.2603V12.6475H12.2735V16.6475ZM14.2603 16.6475C15.5953 16.6475 16.548 15.5454 16.548 14.3486H12.548C12.548 13.482 13.2431 12.6475 14.2603 12.6475V16.6475ZM16.548 14.3486C16.548 13.1518 15.5953 12.0497 14.2603 12.0497V16.0497C13.2431 16.0497 12.548 15.2152 12.548 14.3486H16.548ZM14.2603 12.0497H12.2735V16.0497H14.2603V12.0497ZM12.2735 12.0497C10.9385 12.0497 9.98584 13.1518 9.98584 14.3486H13.9858C13.9858 15.2152 13.2907 16.0497 12.2735 16.0497V12.0497ZM9.98584 14.3486C9.98584 15.5454 10.9385 16.6475 12.2735 16.6475V12.6475C13.2907 12.6475 13.9858 13.482 13.9858 14.3486H9.98584Z" fill="black" mask="url(#path-3-inside-2)"/>
<mask id="path-5-inside-3" fill="white">
<path d="M12.2735 16.1423H14.2603C14.4192 16.1423 14.548 16.0084 14.548 15.8434C14.548 15.6783 14.4192 15.5444 14.2603 15.5444H12.2735C12.1146 15.5444 11.9858 15.6783 11.9858 15.8434C11.9858 16.0084 12.1146 16.1423 12.2735 16.1423Z"/>
</mask>
<path d="M12.2735 16.1423H14.2603C14.4192 16.1423 14.548 16.0084 14.548 15.8434C14.548 15.6783 14.4192 15.5444 14.2603 15.5444H12.2735C12.1146 15.5444 11.9858 15.6783 11.9858 15.8434C11.9858 16.0084 12.1146 16.1423 12.2735 16.1423Z" fill="#3A3A3A"/>
<path d="M11.9858 15.8434L13.9858 15.8438V15.8434H11.9858ZM12.2735 18.1423H14.2603V14.1423H12.2735V18.1423ZM14.2603 18.1423C15.5955 18.1423 16.548 17.0399 16.548 15.8434H12.548C12.548 14.9769 13.2429 14.1423 14.2603 14.1423V18.1423ZM16.548 15.8434C16.548 14.6466 15.5953 13.5444 14.2603 13.5444V17.5444C13.2431 17.5444 12.548 16.7099 12.548 15.8434H16.548ZM14.2603 13.5444H12.2735V17.5444H14.2603V13.5444ZM12.2735 13.5444C10.9384 13.5444 9.98584 14.6468 9.98584 15.8434H13.9858C13.9858 16.7098 13.2909 17.5444 12.2735 17.5444V13.5444ZM9.98584 15.8429C9.9856 17.0402 10.9387 18.1423 12.2735 18.1423V14.1423C13.2905 14.1423 13.986 14.9766 13.9858 15.8438L9.98584 15.8429Z" fill="black" mask="url(#path-5-inside-3)"/>
<mask id="path-7-inside-4" fill="white">
<path d="M14.2738 4.78286C14.2738 4.1225 13.7586 3.58716 13.123 3.58716H9.09535V1.49466C9.0944 0.669579 8.45094 0.000980863 7.65688 0H1.90307C1.10901 0.000980863 0.465544 0.669579 0.4646 1.49466V16.4412C0.465544 17.2662 1.10901 17.9348 1.90307 17.9358H7.65691C8.45094 17.9348 9.0944 17.2662 9.09538 16.4412V5.9786H13.1231C13.7586 5.9786 14.2738 5.44326 14.2738 4.78286ZM8.51995 16.4411C8.51995 16.9364 8.13356 17.3379 7.65688 17.3379H1.90307C1.42642 17.3379 1.03999 16.9364 1.03999 16.4411V1.49466C1.03999 0.999394 1.42639 0.597871 1.90307 0.597871H7.65691C8.13356 0.597871 8.51999 0.999394 8.51999 1.49466V3.58716H6.76504C6.35977 2.84531 5.60094 2.38823 4.77997 2.39145C3.50886 2.39145 2.47843 3.46213 2.47843 4.7829C2.47843 6.10366 3.50886 7.17431 4.77997 7.17431C5.60094 7.17753 6.35977 6.72045 6.76504 5.9786H8.51995V16.4411ZM4.77997 5.9786H6.06825C5.74176 6.36142 5.27223 6.57931 4.77997 6.57647C3.82665 6.57647 3.05382 5.77346 3.05382 4.7829C3.05382 3.79233 3.82665 2.98932 4.77997 2.98932C5.27226 2.98634 5.74183 3.20427 6.06825 3.58719H4.77997C4.14443 3.58719 3.62922 4.12253 3.62922 4.7829C3.62922 5.44326 4.14443 5.9786 4.77997 5.9786ZM4.77997 5.38073C4.46219 5.38073 4.20458 5.11306 4.20458 4.78286C4.20458 4.45266 4.46219 4.18499 4.77997 4.18499H13.123C13.4408 4.18499 13.6984 4.45266 13.6984 4.78286C13.6984 5.11306 13.4408 5.38073 13.123 5.38073H4.77997Z"/>
</mask>
<path d="M14.2738 4.78286C14.2738 4.1225 13.7586 3.58716 13.123 3.58716H9.09535V1.49466C9.0944 0.669579 8.45094 0.000980863 7.65688 0H1.90307C1.10901 0.000980863 0.465544 0.669579 0.4646 1.49466V16.4412C0.465544 17.2662 1.10901 17.9348 1.90307 17.9358H7.65691C8.45094 17.9348 9.0944 17.2662 9.09538 16.4412V5.9786H13.1231C13.7586 5.9786 14.2738 5.44326 14.2738 4.78286ZM8.51995 16.4411C8.51995 16.9364 8.13356 17.3379 7.65688 17.3379H1.90307C1.42642 17.3379 1.03999 16.9364 1.03999 16.4411V1.49466C1.03999 0.999394 1.42639 0.597871 1.90307 0.597871H7.65691C8.13356 0.597871 8.51999 0.999394 8.51999 1.49466V3.58716H6.76504C6.35977 2.84531 5.60094 2.38823 4.77997 2.39145C3.50886 2.39145 2.47843 3.46213 2.47843 4.7829C2.47843 6.10366 3.50886 7.17431 4.77997 7.17431C5.60094 7.17753 6.35977 6.72045 6.76504 5.9786H8.51995V16.4411ZM4.77997 5.9786H6.06825C5.74176 6.36142 5.27223 6.57931 4.77997 6.57647C3.82665 6.57647 3.05382 5.77346 3.05382 4.7829C3.05382 3.79233 3.82665 2.98932 4.77997 2.98932C5.27226 2.98634 5.74183 3.20427 6.06825 3.58719H4.77997C4.14443 3.58719 3.62922 4.12253 3.62922 4.7829C3.62922 5.44326 4.14443 5.9786 4.77997 5.9786ZM4.77997 5.38073C4.46219 5.38073 4.20458 5.11306 4.20458 4.78286C4.20458 4.45266 4.46219 4.18499 4.77997 4.18499H13.123C13.4408 4.18499 13.6984 4.45266 13.6984 4.78286C13.6984 5.11306 13.4408 5.38073 13.123 5.38073H4.77997Z" fill="#3A3A3A"/>
<path d="M9.09535 3.58716H7.09535V5.58716H9.09535V3.58716ZM9.09535 1.49466H11.0953L11.0953 1.49237L9.09535 1.49466ZM7.65688 0L7.65935 -2H7.65688V0ZM1.90307 0V-2L1.9006 -2L1.90307 0ZM0.4646 1.49466L-1.5354 1.49237V1.49466H0.4646ZM0.4646 16.4412H-1.5354L-1.5354 16.4434L0.4646 16.4412ZM1.90307 17.9358L1.90051 19.9358H1.90307V17.9358ZM7.65691 17.9358V19.9358L7.65938 19.9358L7.65691 17.9358ZM9.09538 16.4412L11.0954 16.4435V16.4412H9.09538ZM9.09538 5.9786V3.9786H7.09538V5.9786H9.09538ZM8.51999 3.58716V5.58716H10.52V3.58716H8.51999ZM6.76504 3.58716L5.00988 4.54601L5.57866 5.58716H6.76504V3.58716ZM4.77997 2.39145V4.39146L4.78782 4.39143L4.77997 2.39145ZM4.77997 7.17431L4.78782 5.17431H4.77997V7.17431ZM6.76504 5.9786V3.9786H5.57866L5.00988 5.01975L6.76504 5.9786ZM8.51995 5.9786H10.52V3.9786H8.51995V5.9786ZM6.06825 5.9786L7.58998 7.27642L10.4025 3.9786H6.06825V5.9786ZM4.77997 6.57647L4.7915 4.57647H4.77997V6.57647ZM4.77997 2.98932V4.98936L4.79207 4.98928L4.77997 2.98932ZM6.06825 3.58719V5.58719H10.4012L7.59029 2.28974L6.06825 3.58719ZM16.2738 4.78286C16.2738 3.09085 14.9347 1.58716 13.123 1.58716V5.58716C12.5825 5.58716 12.2738 5.15414 12.2738 4.78286H16.2738ZM13.123 1.58716H9.09535V5.58716H13.123V1.58716ZM11.0953 3.58716V1.49466H7.09535V3.58716H11.0953ZM11.0953 1.49237C11.0932 -0.362755 9.62741 -1.99757 7.65935 -2L7.65441 2C7.27447 1.99953 7.09558 1.70191 7.09535 1.49695L11.0953 1.49237ZM7.65688 -2H1.90307V2H7.65688V-2ZM1.9006 -2C-0.0674613 -1.99757 -1.53328 -0.362755 -1.5354 1.49237L2.4646 1.49695C2.46436 1.70191 2.28547 1.99953 1.90554 2L1.9006 -2ZM-1.5354 1.49466V16.4412H2.4646V1.49466H-1.5354ZM-1.5354 16.4434C-1.53328 18.2986 -0.0674297 19.9333 1.90051 19.9358L1.90563 15.9358C2.28544 15.9363 2.46436 16.2338 2.4646 16.4389L-1.5354 16.4434ZM1.90307 19.9358H7.65691V15.9358H1.90307V19.9358ZM7.65938 19.9358C9.62745 19.9334 11.0932 18.2985 11.0954 16.4435L7.09538 16.4388C7.09562 16.2339 7.27443 15.9363 7.65444 15.9358L7.65938 19.9358ZM11.0954 16.4412V5.9786H7.09538V16.4412H11.0954ZM9.09538 7.9786H13.1231V3.9786H9.09538V7.9786ZM13.1231 7.9786C14.9348 7.9786 16.2738 6.47483 16.2738 4.78286H12.2738C12.2738 4.4117 12.5824 3.9786 13.1231 3.9786V7.9786ZM6.51995 16.4411C6.51995 15.9048 6.9574 15.3379 7.65688 15.3379V19.3379C9.30972 19.3379 10.52 17.968 10.52 16.4411H6.51995ZM7.65688 15.3379H1.90307V19.3379H7.65688V15.3379ZM1.90307 15.3379C2.60248 15.3379 3.03999 15.9047 3.03999 16.4411H-0.960006C-0.960006 17.9681 0.250361 19.3379 1.90307 19.3379V15.3379ZM3.03999 16.4411V1.49466H-0.960006V16.4411H3.03999ZM3.03999 1.49466C3.03999 2.03099 2.60255 2.59787 1.90307 2.59787V-1.40213C0.250228 -1.40213 -0.960006 -0.0321986 -0.960006 1.49466H3.03999ZM1.90307 2.59787H7.65691V-1.40213H1.90307V2.59787ZM7.65691 2.59787C6.95745 2.59787 6.51999 2.03104 6.51999 1.49466H10.52C10.52 -0.0322495 9.30967 -1.40213 7.65691 -1.40213V2.59787ZM6.51999 1.49466V3.58716H10.52V1.49466H6.51999ZM8.51999 1.58716H6.76504V5.58716H8.51999V1.58716ZM8.52021 2.6283C7.77598 1.26601 6.35416 0.385253 4.77212 0.391464L4.78782 4.39143C4.84772 4.3912 4.94356 4.42461 5.00988 4.54601L8.52021 2.6283ZM4.77997 0.391448C2.33275 0.391448 0.478429 2.43049 0.478429 4.7829H4.47843C4.47843 4.49377 4.68497 4.39145 4.77997 4.39145V0.391448ZM0.478429 4.7829C0.478429 7.13535 2.33279 9.17431 4.77997 9.17431V5.17431C4.68493 5.17431 4.47843 5.07198 4.47843 4.7829H0.478429ZM4.77212 9.1743C6.35416 9.18051 7.77598 8.29975 8.52021 6.93746L5.00988 5.01975C4.94356 5.14115 4.84772 5.17456 4.78782 5.17433L4.77212 9.1743ZM6.76504 7.9786H8.51995V3.9786H6.76504V7.9786ZM6.51995 5.9786V16.4411H10.52V5.9786H6.51995ZM4.77997 7.9786H6.06825V3.9786H4.77997V7.9786ZM4.54651 4.68079C4.59292 4.62637 4.67936 4.57586 4.7915 4.57651L4.76844 8.57644C5.86509 8.58276 6.8906 8.09647 7.58998 7.27642L4.54651 4.68079ZM4.77997 4.57647C4.88075 4.57647 4.95982 4.62207 5.00044 4.66428C5.03977 4.70514 5.05382 4.75111 5.05382 4.7829H1.05382C1.05382 6.80511 2.65054 8.57647 4.77997 8.57647V4.57647ZM5.05382 4.7829C5.05382 4.81469 5.03977 4.86065 5.00044 4.90151C4.95982 4.94372 4.88075 4.98932 4.77997 4.98932V0.989319C2.65054 0.989319 1.05382 2.76069 1.05382 4.7829H5.05382ZM4.79207 4.98928C4.6795 4.98996 4.59275 4.93925 4.5462 4.88464L7.59029 2.28974C6.89091 1.46929 5.86502 0.98272 4.76788 0.989356L4.79207 4.98928ZM6.06825 1.58719H4.77997V5.58719H6.06825V1.58719ZM4.77997 1.58719C2.96832 1.58719 1.62922 3.09089 1.62922 4.7829H5.62922C5.62922 5.15418 5.32054 5.58719 4.77997 5.58719V1.58719ZM1.62922 4.7829C1.62922 6.47491 2.96832 7.9786 4.77997 7.9786V3.9786C5.32055 3.9786 5.62922 4.41162 5.62922 4.7829H1.62922ZM4.77997 3.38073C5.6383 3.38073 6.20458 4.08142 6.20458 4.78286H2.20458C2.20458 6.14471 3.28607 7.38073 4.77997 7.38073V3.38073ZM6.20458 4.78286C6.20458 5.4843 5.6383 6.18499 4.77997 6.18499V2.18499C3.28607 2.18499 2.20458 3.42102 2.20458 4.78286H6.20458ZM4.77997 6.18499H13.123V2.18499H4.77997V6.18499ZM13.123 6.18499C12.2647 6.18499 11.6984 5.48431 11.6984 4.78286H15.6984C15.6984 3.42101 14.6169 2.18499 13.123 2.18499V6.18499ZM11.6984 4.78286C11.6984 4.08142 12.2647 3.38073 13.123 3.38073V7.38073C14.6169 7.38073 15.6984 6.14471 15.6984 4.78286H11.6984ZM13.123 3.38073H4.77997V7.38073H13.123V3.38073Z" fill="black" mask="url(#path-7-inside-4)"/>
<mask id="path-9-inside-5" fill="white">
<path d="M4.78001 10.7574C4.35967 10.7574 4.00045 11.0721 3.92938 11.5026C3.85831 11.9331 4.09602 12.3542 4.49233 12.4997V13.4518C4.49233 13.6169 4.62112 13.7508 4.78001 13.7508C4.93891 13.7508 5.06769 13.6169 5.06769 13.4518V12.4997C5.464 12.3542 5.70172 11.9331 5.63065 11.5026C5.55958 11.0721 5.20036 10.7574 4.78001 10.7574ZM4.78001 11.9572C4.62112 11.9572 4.49233 11.8233 4.49233 11.6583C4.49233 11.4932 4.62112 11.3593 4.78001 11.3593C4.93891 11.3593 5.06769 11.4932 5.06769 11.6583C5.06769 11.8234 4.93891 11.9572 4.78001 11.9572Z"/>
</mask>
<path d="M4.78001 10.7574C4.35967 10.7574 4.00045 11.0721 3.92938 11.5026C3.85831 11.9331 4.09602 12.3542 4.49233 12.4997V13.4518C4.49233 13.6169 4.62112 13.7508 4.78001 13.7508C4.93891 13.7508 5.06769 13.6169 5.06769 13.4518V12.4997C5.464 12.3542 5.70172 11.9331 5.63065 11.5026C5.55958 11.0721 5.20036 10.7574 4.78001 10.7574ZM4.78001 11.9572C4.62112 11.9572 4.49233 11.8233 4.49233 11.6583C4.49233 11.4932 4.62112 11.3593 4.78001 11.3593C4.93891 11.3593 5.06769 11.4932 5.06769 11.6583C5.06769 11.8234 4.93891 11.9572 4.78001 11.9572Z" fill="#3A3A3A"/>
<path d="M4.49233 12.4997H6.49233V11.1038L5.18199 10.6224L4.49233 12.4997ZM5.06769 12.4997L4.37803 10.6224L3.06769 11.1038V12.4997H5.06769ZM5.63065 11.5026L7.60394 11.1768L7.60393 11.1768L5.63065 11.5026ZM5.06769 11.6583H3.06769H5.06769ZM4.78001 8.75745C3.32615 8.75745 2.17752 9.83552 1.95609 11.1768L5.90267 11.8284C5.82337 12.3087 5.39318 12.7574 4.78001 12.7574V8.75745ZM1.95609 11.1768C1.73637 12.5077 2.4613 13.8843 3.80267 14.3771L5.18199 10.6224C5.73075 10.824 5.98025 11.3584 5.90267 11.8284L1.95609 11.1768ZM2.49233 12.4997V13.4518H6.49233V12.4997H2.49233ZM2.49233 13.4518C2.49233 14.6486 3.44501 15.7508 4.78001 15.7508V11.7508C5.79722 11.7508 6.49233 12.5853 6.49233 13.4518H2.49233ZM4.78001 15.7508C6.11501 15.7508 7.06769 14.6486 7.06769 13.4518H3.06769C3.06769 12.5853 3.7628 11.7508 4.78001 11.7508V15.7508ZM7.06769 13.4518V12.4997H3.06769V13.4518H7.06769ZM5.75735 14.3771C7.09872 13.8843 7.82365 12.5077 7.60394 11.1768L3.65736 11.8284C3.57978 11.3584 3.82928 10.824 4.37803 10.6224L5.75735 14.3771ZM7.60393 11.1768C7.3825 9.83562 6.23394 8.75745 4.78001 8.75745V12.7574C4.16677 12.7574 3.73665 12.3086 3.65736 11.8284L7.60393 11.1768ZM4.78001 9.95718C5.79738 9.95718 6.49233 10.7918 6.49233 11.6583H2.49233C2.49233 12.8548 3.44486 13.9572 4.78001 13.9572V9.95718ZM6.49233 11.6583C6.49233 12.5248 5.79722 13.3593 4.78001 13.3593V9.35935C3.44501 9.35935 2.49233 10.4615 2.49233 11.6583H6.49233ZM4.78001 13.3593C3.76265 13.3593 3.06769 12.5247 3.06769 11.6583H7.06769C7.06769 10.4617 6.11516 9.35935 4.78001 9.35935V13.3593ZM3.06769 11.6583C3.06769 10.7917 3.76279 9.95718 4.78001 9.95718V13.9572C6.11502 13.9572 7.06769 12.855 7.06769 11.6583H3.06769Z" fill="black" mask="url(#path-9-inside-5)"/>
</svg>
