<svg width="37" height="30" viewBox="0 0 37 30" fill="none" xmlns="http://www.w3.org/2000/svg">
<path d="M36.1611 2.91408H21.4582C21.105 1.28043 19.6038 0 17.8819 0C16.1158 0 14.6587 1.23628 14.3055 2.91408H0.794749C0.353222 2.91408 0 3.2673 0 3.70883C0 4.15036 0.353222 4.50358 0.794749 4.50358H14.2613C14.6146 6.13723 16.1158 7.41766 17.8377 7.41766C19.6038 7.41766 21.0609 6.18138 21.4141 4.50358H36.1611C36.6026 4.50358 36.9558 4.15036 36.9558 3.70883C36.9558 3.2673 36.6026 2.91408 36.1611 2.91408ZM17.8819 5.87231C16.7339 5.87231 15.7625 4.94511 15.7625 3.75298C15.7625 2.56086 16.6897 1.63365 17.8819 1.63365C19.0298 1.63365 20.0012 2.56086 20.0012 3.75298C20.0012 4.90095 19.074 5.87231 17.8819 5.87231Z" fill="url(#paint0_linear)"/>
<path d="M36.2052 13.8198H13.9081C13.5549 12.1862 12.0537 10.9058 10.3317 10.9058C8.56563 10.9058 7.10859 12.142 6.75537 13.8198H0.794749C0.353222 13.8198 0 14.1731 0 14.6146C0 15.0561 0.353222 15.4093 0.794749 15.4093H6.75537C7.10859 17.043 8.60978 18.3234 10.3317 18.3234C12.0979 18.3234 13.5549 17.0871 13.9081 15.4093H36.2052C36.6468 15.4093 37 15.0561 37 14.6146C37 14.1731 36.6468 13.8198 36.2052 13.8198ZM10.3317 16.7339C9.18377 16.7339 8.21241 15.8067 8.21241 14.6146C8.21241 13.4666 9.18377 12.4953 10.3317 12.4953C11.4797 12.4953 12.4511 13.4225 12.4511 14.6146C12.4511 15.7626 11.5239 16.7339 10.3317 16.7339Z" fill="url(#paint1_linear)"/>
<path d="M36.1611 24.6814H29.2291C28.8759 23.0478 27.3747 21.7673 25.6527 21.7673C23.8866 21.7673 22.4296 23.0036 22.0764 24.6814H0.794749C0.353222 24.6814 0 25.0346 0 25.4762C0 25.9177 0.353222 26.2709 0.794749 26.2709H22.0322C22.3854 27.9046 23.8866 29.185 25.6086 29.185C27.3747 29.185 28.8317 27.9487 29.185 26.2709H36.1611C36.6026 26.2709 36.9558 25.9177 36.9558 25.4762C36.9558 25.0346 36.6026 24.6814 36.1611 24.6814ZM25.6086 27.6396C24.4606 27.6396 23.4893 26.7124 23.4893 25.5203C23.4893 24.3282 24.4606 23.401 25.6086 23.401C26.7566 23.401 27.7279 24.3282 27.7279 25.5203C27.7279 26.7124 26.8007 27.6396 25.6086 27.6396Z" fill="url(#paint2_linear)"/>
<defs>
<linearGradient id="paint0_linear" x1="2.84276" y1="0.178552" x2="5.01235" y2="12.5587" gradientUnits="userSpaceOnUse">
<stop offset="0.255208" stop-color="#B99B6C"/>
<stop offset="1" stop-color="#B99B6C"/>
</linearGradient>
<linearGradient id="paint1_linear" x1="2.84615" y1="11.0843" x2="5.01331" y2="23.4654" gradientUnits="userSpaceOnUse">
<stop offset="0.255208" stop-color="#B99B6C"/>
<stop offset="1" stop-color="#B99B6C"/>
</linearGradient>
<linearGradient id="paint2_linear" x1="2.84276" y1="21.9459" x2="5.01235" y2="34.326" gradientUnits="userSpaceOnUse">
<stop offset="0.255208" stop-color="#B99B6C"/>
<stop offset="1" stop-color="#B99B6C"/>
</linearGradient>
</defs>
</svg>
