<svg width="31" height="31" viewBox="0 0 31 31" fill="none" xmlns="http://www.w3.org/2000/svg">
<path d="M28.6709 1.18805C27.8955 1.18805 27.2342 1.68461 26.9886 2.37609H22.6036C22.6036 1.06599 21.5361 0 20.2243 0C18.9098 0 17.8449 1.06321 17.8449 2.37609H15.4656C15.4656 1.06599 14.3982 0 13.0863 0C11.7719 0 10.707 1.06321 10.707 2.37609H8.32764C8.32764 1.06599 7.2602 0 5.94831 0C4.63388 0 3.56899 1.06321 3.56899 2.37609H0.594831C0.26628 2.37609 0 2.64201 0 2.97012C0 3.29822 0.26628 3.56344 0.594831 3.56344H3.56899C3.56899 4.21872 3.03527 4.75219 2.37933 4.75219H0.594831C0.26628 4.75219 0 5.0181 0 5.34621V14.0189C0 14.3471 0.26628 14.613 0.594831 14.613C0.923383 14.613 1.18966 14.3471 1.18966 14.0189V5.94023H2.37933C3.69121 5.94023 4.75865 4.87424 4.75865 3.56414V2.37609C4.75865 1.71988 5.29121 1.18805 5.94831 1.18805C6.60425 1.18805 7.13798 1.72104 7.13798 2.37609V3.56414C7.13798 4.87679 8.20263 5.94023 9.5173 5.94023C10.8292 5.94023 11.8966 4.87424 11.8966 3.56414V2.37609C11.8966 1.71988 12.4292 1.18805 13.0863 1.18805C13.7422 1.18805 14.276 1.72104 14.276 2.37609V3.56414C14.276 4.87679 15.3406 5.94023 16.6553 5.94023C17.9672 5.94023 19.0346 4.87424 19.0346 3.56414V2.37609C19.0346 1.71988 19.5672 1.18805 20.2243 1.18805C20.8802 1.18805 21.4139 1.72104 21.4139 2.37609V28.0379C21.4139 28.6941 20.8814 29.2259 20.2243 29.2259C19.5683 29.2259 19.0346 28.6929 19.0346 28.0379C19.0346 26.3015 19.0346 14.8926 19.0346 12.4745C19.0346 12.1464 18.7683 11.8805 18.4398 11.8805C18.1112 11.8805 17.8449 12.1464 17.8449 12.4745V24.7919C17.4871 24.5847 17.0798 24.4738 16.6553 24.4738C16.2222 24.4738 15.8158 24.5905 15.4656 24.7935V7.7223C15.4656 7.3942 15.1993 7.12828 14.8708 7.12828C14.5422 7.12828 14.276 7.3942 14.276 7.7223V28.0379C14.276 28.6941 13.7434 29.2259 13.0863 29.2259C12.4303 29.2259 11.8966 28.6929 11.8966 28.0379C11.8966 26.3015 11.8966 14.8926 11.8966 12.4745C11.8966 12.1464 11.6303 11.8805 11.3018 11.8805C10.9732 11.8805 10.707 12.1464 10.707 12.4745V24.7919C10.3491 24.5847 9.94182 24.4738 9.5173 24.4738C9.08419 24.4738 8.6778 24.5905 8.32764 24.7935V7.7223C8.32764 7.3942 8.06136 7.12828 7.73281 7.12828C7.40426 7.12828 7.13798 7.3942 7.13798 7.7223V28.0379C7.13798 28.6941 6.60542 29.2259 5.94831 29.2259C5.29237 29.2259 4.75865 28.6929 4.75865 28.0379C4.75865 26.3015 4.75865 14.8926 4.75865 12.4745C4.75865 12.1464 4.49237 11.8805 4.16382 11.8805C3.83527 11.8805 3.56899 12.1464 3.56899 12.4745V24.7935C3.21883 24.5905 2.81244 24.4738 2.37933 24.4738H1.18966V18.7711C1.18966 18.443 0.923383 18.1771 0.594831 18.1771C0.26628 18.1771 0 18.443 0 18.7711V25.0678C0 25.3959 0.26628 25.6618 0.594831 25.6618H2.37933C3.03527 25.6618 3.56899 26.1948 3.56899 26.8498V28.0379C3.56899 29.348 4.63643 30.414 5.94831 30.414C7.26275 30.414 8.32764 29.3508 8.32764 28.0379V26.8498C8.32764 26.1948 8.86136 25.6618 9.5173 25.6618C10.1742 25.6618 10.707 26.1936 10.707 26.8498V28.0379C10.707 29.348 11.7744 30.414 13.0863 30.414C14.4007 30.414 15.4656 29.3508 15.4656 28.0379V26.8498C15.4656 26.1948 15.9993 25.6618 16.6553 25.6618C17.3121 25.6618 17.8449 26.1936 17.8449 26.8498V28.0379C17.8449 29.348 18.9124 30.414 20.2243 30.414C21.5387 30.414 22.6036 29.3508 22.6036 28.0379V3.56414H26.9886C27.2342 4.25562 27.8955 4.75219 28.6709 4.75219C29.6549 4.75219 30.4554 3.95281 30.4554 2.97012C30.4554 1.98743 29.6549 1.18805 28.6709 1.18805ZM9.5173 4.75219C8.86043 4.75219 8.32764 4.21965 8.32764 3.56344H10.707C10.707 4.21872 10.1732 4.75219 9.5173 4.75219ZM16.6553 4.75219C15.9984 4.75219 15.4656 4.21965 15.4656 3.56344H17.8449C17.8449 4.21872 17.3112 4.75219 16.6553 4.75219ZM28.6709 3.56414C28.3428 3.56414 28.076 3.29776 28.076 2.97012C28.076 2.64248 28.3428 2.37609 28.6709 2.37609C28.999 2.37609 29.2657 2.64248 29.2657 2.97012C29.2657 3.29776 28.999 3.56414 28.6709 3.56414Z" fill="white"/>
</svg>
