<svg width="34" height="26" viewBox="0 0 34 26" fill="none" xmlns="http://www.w3.org/2000/svg">
<g clip-path="url(#clip0)">
<path d="M19.3468 0C22.9414 1.58481 22.7811 3.88162 22.6438 7.02827C22.6209 7.34982 22.0485 7.64841 21.7508 7.96996C21.4761 7.62544 20.9953 7.32685 20.9495 6.95936C20.8121 6.15548 20.9037 5.30565 20.8808 4.45583C20.835 2.80212 19.8963 1.79152 18.2707 1.79152C13.6458 1.76855 9.02087 1.76855 4.39595 1.79152C2.74747 1.79152 1.78585 2.80212 1.78585 4.45583C1.76296 10.1519 1.76296 15.8481 1.78585 21.5442C1.78585 23.2438 2.77036 24.2085 4.51043 24.2085C9.06666 24.2314 13.6 24.2314 18.1562 24.2085C19.8963 24.2085 20.835 23.1749 20.8808 21.4064C20.9037 20.5795 20.835 19.7297 20.9495 18.9028C20.9953 18.5813 21.4761 18.3056 21.7508 18.0071C22.0485 18.3286 22.5522 18.6272 22.5751 18.9717C22.6667 20.0283 22.6438 21.1078 22.5751 22.1643C22.3919 24.3003 20.6289 25.9541 18.4768 25.977C13.7374 26.023 8.99797 26 4.25858 25.977C2.51851 25.977 1.25925 25.0813 0.457905 23.5424C0.320531 23.2897 0.160262 23.0371 0.0228882 22.8074C0.0228882 16.2844 0.0228882 9.73851 0.0228882 3.21555C0.663966 1.72261 1.71716 0.666078 3.18248 0C8.56295 0 13.9434 0 19.3468 0Z" fill="white"/>
<path d="M31.1839 12.1042C29.7643 10.7031 28.5967 9.55472 27.429 8.40631C27.1771 8.17663 26.8337 7.92398 26.765 7.64836C26.6734 7.30384 26.7192 6.7526 26.9253 6.54589C27.1085 6.36214 27.7953 6.36214 27.9785 6.54589C29.9704 8.45225 31.9394 10.4045 33.8398 12.4257C34.0458 12.6325 34.0458 13.3904 33.8398 13.6201C31.9623 15.5954 30.0162 17.5247 28.0472 19.4081C27.8182 19.6148 27.2 19.4081 26.765 19.4081C26.8337 18.9717 26.7421 18.3745 26.9711 18.0989C27.9556 16.9964 29.0317 15.9858 30.0849 14.9523C30.3596 14.6996 30.6573 14.4699 30.9549 14.2402C30.9091 14.1484 30.8633 14.0795 30.8404 13.9876C30.497 13.9646 30.1307 13.9416 29.7872 13.9416C25.231 13.9416 20.6977 13.9416 16.1415 13.9416C15.8438 13.9416 15.4775 14.0335 15.2485 13.9187C14.9051 13.7349 14.6303 13.3674 14.3327 13.0918C14.6532 12.7932 14.928 12.4028 15.2943 12.1961C15.5233 12.0583 15.8896 12.1731 16.1872 12.1731C20.6977 12.1731 25.2081 12.1731 29.7186 12.1731C30.0849 12.1042 30.4512 12.1042 31.1839 12.1042Z" fill="white"/>
</g>
<defs>
<clipPath id="clip0">
<rect width="34" height="26" fill="white"/>
</clipPath>
</defs>
</svg>
