<svg width="55" height="55" viewBox="0 0 55 55" fill="none" xmlns="http://www.w3.org/2000/svg">
<rect width="55" height="55" fill="#E5E5E5"/>
<g id="guias y estilos" clip-path="url(#clip0)">
<rect width="2476" height="2444" transform="translate(-1902 -2203)" fill="white"/>
<g id="hotel 1" clip-path="url(#clip1)">
<g id="Group">
<g id="Group_2">
<path id="Vector" d="M15.3994 24.8748H9.10991C8.6137 24.8748 8.21143 25.277 8.21143 25.7732V34.7582C8.21143 35.2544 8.6137 35.6567 9.10991 35.6567H15.3994C15.8956 35.6567 16.2979 35.2544 16.2979 34.7582V25.7732C16.2979 25.277 15.8956 24.8748 15.3994 24.8748ZM14.5009 33.8597H10.0084V26.6717H14.5009V33.8597Z" fill="white"/>
</g>
</g>
<g id="Group_3">
<g id="Group_4">
<path id="Vector_2" d="M30.6738 24.8748H24.3843C23.8881 24.8748 23.4858 25.277 23.4858 25.7732V34.7582C23.4858 35.2544 23.8881 35.6567 24.3843 35.6567H30.6738C31.17 35.6567 31.5723 35.2544 31.5723 34.7582V25.7732C31.5723 25.277 31.17 24.8748 30.6738 24.8748ZM29.7753 33.8597H25.2829V26.6717H29.7753V33.8597Z" fill="white"/>
</g>
</g>
<g id="Group_5">
<g id="Group_6">
<path id="Vector_3" d="M30.6738 39.2507H24.3843C23.8881 39.2507 23.4858 39.653 23.4858 40.1492V49.1342C23.4858 49.6304 23.8881 50.0327 24.3843 50.0327H30.6738C31.17 50.0327 31.5723 49.6304 31.5723 49.1342V40.1492C31.5723 39.6531 31.17 39.2507 30.6738 39.2507ZM29.7753 48.2357H25.2829V41.0477H29.7753V48.2357Z" fill="white"/>
</g>
</g>
<g id="Group_7">
<g id="Group_8">
<path id="Vector_4" d="M45.0498 24.8748H38.7603C38.2641 24.8748 37.8618 25.277 37.8618 25.7732V34.7582C37.8618 35.2544 38.2641 35.6567 38.7603 35.6567H45.0498C45.546 35.6567 45.9483 35.2544 45.9483 34.7582V25.7732C45.9483 25.277 45.546 24.8748 45.0498 24.8748ZM44.1513 33.8597H39.6589V26.6717H44.1513V33.8597Z" fill="white"/>
</g>
</g>
<g id="Group_9">
<g id="Group_10">
<path id="Vector_5" d="M15.3994 39.2507H9.10991C8.6137 39.2507 8.21143 39.653 8.21143 40.1492V49.1342C8.21143 49.6304 8.6137 50.0327 9.10991 50.0327H15.3994C15.8956 50.0327 16.2979 49.6304 16.2979 49.1342V40.1492C16.2979 39.6531 15.8956 39.2507 15.3994 39.2507ZM14.5009 48.2357H10.0084V41.0477H14.5009V48.2357Z" fill="white"/>
</g>
</g>
<g id="Group_11">
<g id="Group_12">
<path id="Vector_6" d="M45.0498 39.2507H38.7603C38.2641 39.2507 37.8618 39.653 37.8618 40.1492V49.1342C37.8618 49.6304 38.2641 50.0327 38.7603 50.0327H45.0498C45.546 50.0327 45.9483 49.6304 45.9483 49.1342V40.1492C45.9483 39.6531 45.546 39.2507 45.0498 39.2507ZM44.1513 48.2357H39.6589V41.0477H44.1513V48.2357Z" fill="white"/>
</g>
</g>
<g id="Group_13">
<g id="Group_14">
<path id="Vector_7" d="M50.4409 52.7288V22.1798H51.3393C51.8356 22.1798 52.2378 21.7776 52.2378 21.2814V16.7889C52.2378 16.2927 51.8356 15.8904 51.3393 15.8904H50.4409V12.2965C50.4409 11.8003 50.0386 11.398 49.5424 11.398H47.7454V1.51445C47.7454 1.01824 47.3431 0.615967 46.8469 0.615967H7.313C6.81679 0.615967 6.41451 1.01824 6.41451 1.51445V11.3979H4.61754C4.12133 11.3979 3.71905 11.8002 3.71905 12.2964V15.8903H2.82056C2.32435 15.8903 1.92208 16.2926 1.92208 16.7888V21.2813C1.92208 21.7775 2.32435 22.1797 2.82056 22.1797H3.71905V52.7286H0.125V54.5256H4.61754H49.5424H54.0426V52.7286H50.4409V52.7288ZM8.21148 2.41294H45.9483V11.3979H8.21148V2.41294ZM5.51602 13.1949H7.313H46.8468H48.6438V15.8903H5.51602V13.1949ZM48.6438 52.7288H5.51602V22.1798H48.6439V52.7288H48.6438ZM4.61754 20.3829H3.71905V17.6874H4.61754H49.5424H50.4409V20.3829H49.5424H4.61754Z" fill="white"/>
</g>
</g>
<g id="Group_15">
<g id="Group_16">
<path id="Vector_8" d="M25.6999 5.48639C25.557 5.12118 25.3563 4.80579 25.0974 4.54031C24.8387 4.27483 24.5273 4.06653 24.1634 3.91562C23.7995 3.76471 23.3966 3.68921 22.9545 3.68921C22.5124 3.68921 22.1088 3.76398 21.7436 3.91362C21.3784 4.06326 21.0657 4.27146 20.8056 4.53831C20.5455 4.80516 20.344 5.12118 20.2011 5.4865C20.0582 5.8517 19.9868 6.24861 19.9868 6.67721C19.9868 7.10582 20.0582 7.50272 20.2011 7.86793C20.344 8.23314 20.5455 8.54917 20.8056 8.81612C21.0657 9.08297 21.3784 9.29116 21.7436 9.44081C22.1088 9.59045 22.5124 9.66522 22.9545 9.66522C23.3966 9.66522 23.7995 9.59045 24.1634 9.44081C24.5274 9.29127 24.8387 9.08297 25.0974 8.81612C25.3561 8.54927 25.557 8.23324 25.6999 7.86793C25.8428 7.50272 25.9142 7.10582 25.9142 6.67721C25.9142 6.2485 25.8427 5.8516 25.6999 5.48639ZM24.6708 7.54032C24.5859 7.79506 24.4639 8.01073 24.3049 8.18722C24.1458 8.36382 23.9524 8.49925 23.7246 8.5936C23.4968 8.68796 23.2401 8.73514 22.9544 8.73514C22.6687 8.73514 22.4112 8.68796 22.1822 8.5936C21.953 8.49925 21.7583 8.36382 21.5979 8.18722C21.4375 8.01062 21.3142 7.79506 21.228 7.54032C21.1417 7.28558 21.0986 6.99788 21.0986 6.67711C21.0986 6.35634 21.1417 6.06864 21.228 5.8139C21.3142 5.55916 21.4375 5.34286 21.5979 5.16499C21.7583 4.98713 21.953 4.85096 22.1822 4.75661C22.4113 4.66225 22.6687 4.61508 22.9544 4.61508C23.2401 4.61508 23.4968 4.66225 23.7246 4.75661C23.9524 4.85096 24.1457 4.98713 24.3049 5.16499C24.4639 5.34286 24.5858 5.55916 24.6708 5.8139C24.7557 6.06864 24.7981 6.35634 24.7981 6.67711C24.7981 6.99788 24.7558 7.28558 24.6708 7.54032Z" fill="white"/>
</g>
</g>
<g id="Group_17">
<g id="Group_18">
<path id="Vector_9" d="M18.0296 3.75391V6.26876H15.2884V3.75391H14.1926V9.60039H15.2884V7.04509H18.0296V9.60039H19.1254V3.75391H18.0296Z" fill="white"/>
</g>
</g>
<g id="Group_19">
<g id="Group_20">
<path id="Vector_10" d="M36.9845 8.70274V3.75391H35.8967V9.60039H39.3254V8.70274H36.9845Z" fill="white"/>
</g>
</g>
<g id="Group_21">
<g id="Group_22">
<path id="Vector_11" d="M25.9624 3.75391V4.64744H27.7294V9.60039H28.817V4.64744H30.5757V3.75391H25.9624Z" fill="white"/>
</g>
</g>
<g id="Group_23">
<g id="Group_24">
<path id="Vector_12" d="M34.9548 4.61912V3.75391H31.2673V9.60039H34.9548V8.73107H32.3631V7.07742H34.4049V6.24043H32.3631V4.61912H34.9548Z" fill="white"/>
</g>
</g>
</g>
</g>
<defs>
<clipPath id="clip0">
<rect width="2476" height="2444" fill="white" transform="translate(-1902 -2203)"/>
</clipPath>
<clipPath id="clip1">
<rect width="53.9176" height="53.9176" fill="white" transform="translate(0.125 0.611572)"/>
</clipPath>
</defs>
</svg>
