<svg width="55" height="55" viewBox="0 0 55 55" fill="none" xmlns="http://www.w3.org/2000/svg">
<g clip-path="url(#clip0)">
<path d="M15.9149 24.8363H9.62541C9.1292 24.8363 8.72693 25.2386 8.72693 25.7348V34.7198C8.72693 35.216 9.1292 35.6182 9.62541 35.6182H15.9149C16.4111 35.6182 16.8134 35.216 16.8134 34.7198V25.7348C16.8134 25.2386 16.4111 24.8363 15.9149 24.8363ZM15.0164 33.8213H10.5239V26.6333H15.0164V33.8213Z" fill="white"/>
<path d="M31.1892 24.8363H24.8997C24.4035 24.8363 24.0012 25.2386 24.0012 25.7348V34.7198C24.0012 35.216 24.4035 35.6182 24.8997 35.6182H31.1892C31.6854 35.6182 32.0877 35.216 32.0877 34.7198V25.7348C32.0877 25.2386 31.6854 24.8363 31.1892 24.8363ZM30.2907 33.8213H25.7983V26.6333H30.2907V33.8213Z" fill="white"/>
<path d="M31.1892 39.2122H24.8997C24.4035 39.2122 24.0012 39.6144 24.0012 40.1106V49.0956C24.0012 49.5918 24.4035 49.9941 24.8997 49.9941H31.1892C31.6854 49.9941 32.0877 49.5918 32.0877 49.0956V40.1106C32.0877 39.6145 31.6854 39.2122 31.1892 39.2122ZM30.2907 48.1971H25.7983V41.0091H30.2907V48.1971Z" fill="white"/>
<path d="M45.5652 24.8363H39.2757C38.7795 24.8363 38.3772 25.2386 38.3772 25.7348V34.7198C38.3772 35.216 38.7795 35.6182 39.2757 35.6182H45.5652C46.0614 35.6182 46.4637 35.216 46.4637 34.7198V25.7348C46.4637 25.2386 46.0614 24.8363 45.5652 24.8363ZM44.6667 33.8213H40.1743V26.6333H44.6667V33.8213Z" fill="white"/>
<path d="M15.9149 39.2122H9.62541C9.1292 39.2122 8.72693 39.6144 8.72693 40.1106V49.0956C8.72693 49.5918 9.1292 49.9941 9.62541 49.9941H15.9149C16.4111 49.9941 16.8134 49.5918 16.8134 49.0956V40.1106C16.8134 39.6145 16.4111 39.2122 15.9149 39.2122ZM15.0164 48.1971H10.5239V41.0091H15.0164V48.1971Z" fill="white"/>
<path d="M45.5652 39.2122H39.2757C38.7795 39.2122 38.3772 39.6144 38.3772 40.1106V49.0956C38.3772 49.5918 38.7795 49.9941 39.2757 49.9941H45.5652C46.0614 49.9941 46.4637 49.5918 46.4637 49.0956V40.1106C46.4637 39.6145 46.0614 39.2122 45.5652 39.2122ZM44.6667 48.1971H40.1743V41.0091H44.6667V48.1971Z" fill="white"/>
<path d="M50.9564 52.6902V22.1413H51.8549C52.3511 22.1413 52.7533 21.739 52.7533 21.2428V16.7504C52.7533 16.2541 52.3511 15.8519 51.8549 15.8519H50.9564V12.2579C50.9564 11.7617 50.5541 11.3594 50.0579 11.3594H48.2609V1.47588C48.2609 0.979669 47.8586 0.577393 47.3624 0.577393H7.8285C7.33229 0.577393 6.93001 0.979669 6.93001 1.47588V11.3593H5.13304C4.63683 11.3593 4.23455 11.7616 4.23455 12.2578V15.8518H3.33607C2.83986 15.8518 2.43758 16.254 2.43758 16.7503V21.2427C2.43758 21.7389 2.83986 22.1412 3.33607 22.1412H4.23455V52.69H0.640503V54.487H5.13304H50.0579H54.5581V52.69H50.9564V52.6902ZM8.72698 2.37437H46.4638V11.3593H8.72698V2.37437ZM6.03153 13.1563H7.8285H47.3623H49.1593V15.8518H6.03153V13.1563ZM49.1593 52.6902H6.03153V22.1413H49.1594V52.6902H49.1593ZM5.13304 20.3443H4.23455V17.6488H5.13304H50.0579H50.9564V20.3443H50.0579H5.13304Z" fill="white"/>
<path d="M26.2153 5.44782C26.0724 5.08261 25.8716 4.76721 25.6128 4.50173C25.354 4.23625 25.0427 4.02795 24.6788 3.87705C24.3149 3.72614 23.912 3.65063 23.4699 3.65063C23.0278 3.65063 22.6242 3.7254 22.2589 3.87505C21.8937 4.02469 21.5811 4.23288 21.321 4.49973C21.0609 4.76658 20.8594 5.08261 20.7165 5.44792C20.5736 5.81313 20.5022 6.21004 20.5022 6.63864C20.5022 7.06724 20.5736 7.46415 20.7165 7.82935C20.8594 8.19456 21.0609 8.51059 21.321 8.77755C21.5811 9.0444 21.8937 9.25259 22.2589 9.40223C22.6242 9.55187 23.0278 9.62664 23.4699 9.62664C23.912 9.62664 24.3149 9.55187 24.6788 9.40223C25.0428 9.2527 25.354 9.0444 25.6128 8.77755C25.8715 8.5107 26.0724 8.19467 26.2153 7.82935C26.3582 7.46415 26.4296 7.06724 26.4296 6.63864C26.4296 6.20993 26.3581 5.81303 26.2153 5.44782ZM25.1862 7.50174C25.1013 7.75648 24.9793 7.97215 24.8202 8.14865C24.6612 8.32525 24.4678 8.46067 24.24 8.55503C24.0122 8.64939 23.7555 8.69656 23.4698 8.69656C23.1841 8.69656 22.9266 8.64939 22.6975 8.55503C22.4684 8.46067 22.2737 8.32525 22.1133 8.14865C21.9529 7.97205 21.8296 7.75648 21.7434 7.50174C21.6571 7.247 21.6139 6.9593 21.6139 6.63853C21.6139 6.31777 21.6571 6.03007 21.7434 5.77533C21.8296 5.52059 21.9529 5.30428 22.1133 5.12642C22.2737 4.94855 22.4684 4.81239 22.6975 4.71803C22.9267 4.62368 23.1841 4.5765 23.4698 4.5765C23.7555 4.5765 24.0122 4.62368 24.24 4.71803C24.4678 4.81239 24.6611 4.94855 24.8202 5.12642C24.9793 5.30428 25.1012 5.52059 25.1862 5.77533C25.2711 6.03007 25.3135 6.31777 25.3135 6.63853C25.3135 6.9593 25.2712 7.247 25.1862 7.50174Z" fill="white"/>
<path d="M18.5452 3.71533V6.23019H15.804V3.71533H14.7083V9.56181H15.804V7.00652H18.5452V9.56181H19.641V3.71533H18.5452Z" fill="white"/>
<path d="M37.5 8.66417V3.71533H36.4122V9.56181H39.841V8.66417H37.5Z" fill="white"/>
<path d="M26.478 3.71533V4.60887H28.245V9.56181H29.3326V4.60887H31.0914V3.71533H26.478Z" fill="white"/>
<path d="M35.4703 4.58054V3.71533H31.7828V9.56181H35.4703V8.69249H32.8786V7.03885H34.9204V6.20186H32.8786V4.58054H35.4703Z" fill="white"/>
</g>
<defs>
<clipPath id="clip0">
<rect width="53.9176" height="53.9176" fill="white" transform="translate(0.640503 0.572998)"/>
</clipPath>
</defs>
</svg>
