<svg width="28" height="28" viewBox="0 0 28 28" fill="none" xmlns="http://www.w3.org/2000/svg">
<path d="M12.9669 0C13.6578 0 14.3541 0 15.0449 0C15.341 0.0438176 15.6371 0.082158 15.9277 0.125976C18.702 0.531288 21.1748 1.62673 23.2473 3.51089C27.014 6.93961 28.5602 11.2173 27.82 16.2399C27.3101 19.696 25.6159 22.5715 22.9074 24.7679C19.2722 27.7201 15.1162 28.6512 10.5545 27.5558C8.153 26.9807 6.06952 25.7812 4.28759 24.0613C2.02866 21.8705 0.65246 19.214 0.159003 16.103C0.0986914 15.7305 0.0548285 15.3526 0 14.9801C0 14.2681 0 13.5615 0 12.8495C0.0548285 12.4935 0.104174 12.132 0.164486 11.776C0.778565 8.16103 2.53856 5.22525 5.40609 2.95769C7.23188 1.51718 9.29892 0.591538 11.6017 0.213611C12.0568 0.13693 12.5119 0.0712036 12.9669 0ZM8.29007 13.1562C9.92396 13.1562 11.5469 13.1562 13.1698 13.1562C13.1698 11.2447 13.1698 9.34958 13.1698 7.43804C11.8759 7.43804 10.6038 7.43256 9.32633 7.44899C9.26054 7.44899 9.15088 7.55854 9.12895 7.63522C8.59711 9.42626 8.3449 11.2666 8.29007 13.1562ZM13.1698 20.5559C13.1698 18.6225 13.1698 16.7274 13.1698 14.8377C11.5359 14.8377 9.91848 14.8377 8.27363 14.8377C8.32845 15.495 8.36683 16.1304 8.42715 16.7602C8.54777 17.9926 8.77805 19.2031 9.13992 20.3861C9.16185 20.4573 9.26602 20.5505 9.33182 20.5505C10.6038 20.5559 11.8759 20.5559 13.1698 20.5559ZM19.7383 13.1672C19.7109 12.7345 19.6834 12.3237 19.656 11.9184C19.5573 10.4834 19.2996 9.07572 18.9213 7.68451C18.861 7.4709 18.7623 7.42708 18.5595 7.42708C17.4135 7.43804 16.2621 7.43256 15.1162 7.43256C15.0285 7.43256 14.9408 7.43804 14.8476 7.44351C14.8476 9.36053 14.8476 11.2556 14.8476 13.1617C16.4705 13.1672 18.0825 13.1672 19.7383 13.1672ZM14.8421 20.5285C14.8805 20.5395 14.9024 20.5505 14.9298 20.5505C16.1799 20.5505 17.4245 20.5505 18.6746 20.5559C18.8391 20.5559 18.872 20.4738 18.8939 20.3478C19.1023 19.3455 19.3545 18.3486 19.519 17.3408C19.6505 16.5192 19.6834 15.6812 19.7602 14.8377C18.0879 14.8377 16.465 14.8377 14.8476 14.8377C14.8421 16.7493 14.8421 18.6389 14.8421 20.5285ZM7.4512 7.45995C7.40733 7.44899 7.37992 7.43804 7.35799 7.43804C6.13531 7.43804 4.91812 7.43256 3.69544 7.44351C3.6132 7.44351 3.50354 7.52567 3.4542 7.60235C2.77432 8.69779 2.28087 9.88087 1.99576 11.1351C1.84772 11.7924 1.76548 12.4661 1.65034 13.1562C3.35551 13.1562 4.9894 13.1562 6.62877 13.1562C6.69456 11.2173 6.94129 9.32219 7.4512 7.45995ZM26.3177 13.1672C26.3232 13.1069 26.3287 13.0741 26.3287 13.0412C26.3287 12.9864 26.3287 12.9317 26.3232 12.8769C26.1368 11.0037 25.5775 9.25647 24.607 7.64069C24.5138 7.48733 24.4206 7.43256 24.2452 7.43256C23.1047 7.44351 21.9698 7.43804 20.8294 7.43804C20.7526 7.43804 20.6704 7.44352 20.5662 7.45447C21.0925 9.33863 21.3119 11.2447 21.3996 13.1727C23.0499 13.1672 24.6674 13.1672 26.3177 13.1672ZM7.4512 20.5395C6.92484 18.6663 6.70005 16.7602 6.6178 14.8268C4.96198 14.8268 3.33906 14.8268 1.6942 14.8268C1.6942 14.9308 1.68872 15.0185 1.6942 15.1061C1.88062 16.9958 2.44535 18.7649 3.44323 20.3807C3.49806 20.4628 3.63513 20.5395 3.73931 20.545C4.90715 20.5559 6.06952 20.5505 7.23737 20.5505C7.30316 20.5559 7.36895 20.545 7.4512 20.5395ZM21.3941 14.8268C21.3173 16.7767 21.0706 18.6718 20.5662 20.534C20.6265 20.545 20.6594 20.5505 20.6978 20.5505C21.8985 20.5505 23.1047 20.5559 24.3055 20.545C24.3987 20.545 24.5303 20.4464 24.5851 20.3588C25.3089 19.1812 25.8133 17.9104 26.0929 16.5576C26.208 15.9934 26.2738 15.4183 26.3616 14.8268C24.6728 14.8268 23.0499 14.8268 21.3941 14.8268ZM9.75948 5.77845C10.9383 5.77845 12.0568 5.77845 13.1698 5.77845C13.1698 4.44749 13.1698 3.13296 13.1698 1.77461C11.3714 2.56881 10.538 4.12433 9.75948 5.77845ZM9.80334 22.21C10.1871 23.3274 11.1466 24.8829 12.1336 25.6169C12.4461 25.8469 12.797 26.0277 13.1643 26.2467C13.1643 24.8446 13.1643 23.5301 13.1643 22.21C12.0403 22.21 10.9273 22.21 9.80334 22.21ZM18.2524 5.77845C18.055 5.37861 17.8851 5.00068 17.6822 4.63919C17.1394 3.64781 16.4924 2.74408 15.522 2.11968C15.3136 1.98822 15.0833 1.89511 14.8421 1.77461C14.8421 3.14391 14.8421 4.45844 14.8421 5.77845C15.977 5.77845 17.0901 5.77845 18.2524 5.77845ZM14.8311 22.2046C14.8311 22.8892 14.8311 23.541 14.8311 24.1928C14.8311 24.8501 14.8311 25.5073 14.8311 26.1755C16.2621 25.7538 17.6383 23.8039 18.2086 22.1991C17.0901 22.2046 15.977 22.2046 14.8311 22.2046ZM4.7646 22.1936C6.20111 23.7546 7.82951 24.8829 9.81431 25.6059C9.68272 25.4252 9.58951 25.2937 9.50179 25.1623C8.90964 24.3078 8.45456 23.3767 8.07076 22.4127C8.03238 22.3251 7.92821 22.2046 7.85145 22.1991C6.84808 22.1881 5.8502 22.1936 4.7646 22.1936ZM18.1866 25.6059C20.1879 24.872 21.8218 23.7546 23.2473 22.1936C22.1727 22.1936 21.1803 22.1881 20.1879 22.1991C20.1166 22.1991 20.0069 22.2812 19.9795 22.347C19.5244 23.4862 18.9762 24.5707 18.1866 25.6059ZM9.82527 2.38258C7.84596 3.122 6.19562 4.22292 4.78105 5.79488C5.85569 5.79488 6.86453 5.80035 7.86789 5.7894C7.92821 5.7894 8.01593 5.70177 8.04335 5.63056C8.49294 4.4913 9.05219 3.41777 9.82527 2.38258ZM18.1921 2.38258C18.9707 3.42325 19.5244 4.50774 19.9795 5.64699C20.0069 5.7182 20.155 5.78392 20.2482 5.7894C21.1693 5.80035 22.0849 5.79488 23.0061 5.79488C23.0609 5.79488 23.1212 5.78392 23.2089 5.77297C21.8163 4.2284 20.1714 3.11653 18.1921 2.38258Z" fill="white"/>
</svg>
