<svg width="30" height="39" viewBox="0 0 30 39" fill="none" xmlns="http://www.w3.org/2000/svg">
<path d="M25.1366 15.4815C23.2294 13.4792 20.6864 12.0629 17.8499 11.4768V9.71867C17.8499 9.32797 17.7032 8.93727 17.4098 8.69308C17.1164 8.44889 16.7741 8.25354 16.3828 8.25354H15.6004L15.5515 0.732563C15.5515 0.293025 15.2091 0 14.8179 0C14.3778 0 14.0843 0.341863 14.0843 0.732563L14.1332 8.25354H13.3508C12.9596 8.25354 12.5683 8.40005 12.3238 8.69308C12.0793 8.9861 11.8837 9.32797 11.8837 9.71867V11.428C8.90052 12.0629 6.30861 13.4792 4.30355 15.4815C1.61383 18.1676 0 21.8304 0 25.9327C0 26.3723 0.342328 26.6653 0.73356 26.6653H8.5582C8.75381 28.0816 9.34066 29.3513 10.3187 30.3281C11.4435 31.4514 13.0085 32.1351 14.7201 32.1351C16.4317 32.1351 17.9967 31.4514 19.1215 30.3281C20.0995 29.3513 20.6864 28.0816 20.882 26.6653H28.7066C29.1468 26.6653 29.4402 26.3234 29.4402 25.9327C29.4402 21.8792 27.7775 18.1676 25.1366 15.4815ZM13.3019 9.7675H16.3339V11.2326C16.285 11.2326 16.285 11.2326 16.2361 11.2326C16.1383 11.2326 16.0894 11.2326 15.9916 11.2326C15.6004 11.1838 15.1602 11.1838 14.769 11.1838C14.3778 11.135 13.9865 11.1838 13.5953 11.1838C13.4975 11.1838 13.3997 11.1838 13.3019 11.2326V9.7675ZM18.0945 29.2537C17.2142 30.1328 16.0405 30.6211 14.769 30.6211C13.4486 30.6211 12.2749 30.0839 11.4435 29.2537C10.7589 28.57 10.2698 27.6909 10.1231 26.6653H14.769H19.4638C19.2682 27.642 18.828 28.57 18.0945 29.2537ZM20.2462 25.1513H14.769H9.29175H1.51602C1.71164 21.7815 3.12985 18.7536 5.37944 16.5559C7.4334 14.5047 10.1231 13.1373 13.1552 12.7954C13.253 12.7954 13.3997 12.7466 13.4975 12.7466C13.8887 12.6978 14.3289 12.6978 14.7201 12.6978C15.1602 12.6978 15.5515 12.6978 15.9916 12.7466C16.0894 12.7466 16.2361 12.7954 16.3339 12.7954C19.366 13.1373 22.0557 14.5047 24.1097 16.5559C26.3592 18.8024 27.7775 21.7815 27.9731 25.1513H20.2462Z" fill="white"/>
<path d="M14.7692 33.1606C14.3291 33.1606 14.0356 33.5025 14.0356 33.8932V37.9467C14.0356 38.3863 14.378 38.6793 14.7692 38.6793C15.2093 38.6793 15.5028 38.3374 15.5028 37.9467V33.8932C15.5028 33.4537 15.2093 33.1606 14.7692 33.1606Z" fill="white"/>
<path d="M21.4691 35.9442L19.4151 32.4279C19.2195 32.086 18.7304 31.9395 18.3881 32.1349C18.0458 32.3302 17.8991 32.8186 18.0947 33.1604L20.1487 36.6767C20.3443 37.0186 20.8333 37.1651 21.1756 36.9698C21.518 36.7744 21.6647 36.286 21.4691 35.9442Z" fill="white"/>
<path d="M25.5768 31.3049L22.0557 29.2537C21.7134 29.0583 21.2243 29.156 21.0287 29.5467C20.8331 29.8886 20.9309 30.3769 21.3221 30.5723L24.8432 32.6235C25.1856 32.8188 25.6746 32.7211 25.8702 32.3304C26.0658 31.9886 25.968 31.5002 25.5768 31.3049Z" fill="white"/>
<path d="M8.50919 29.547C8.31357 29.2052 7.82453 29.0587 7.4822 29.254L3.96112 31.3052C3.61879 31.5005 3.47208 31.9889 3.66769 32.3308C3.86331 32.6726 4.35235 32.8191 4.69468 32.6238L8.21576 30.5726C8.55809 30.3284 8.7048 29.8889 8.50919 29.547Z" fill="white"/>
<path d="M11.1502 32.1349C10.8079 31.9395 10.3188 32.086 10.1232 32.4279L8.06924 35.9442C7.87363 36.286 7.97144 36.7744 8.36267 36.9698C8.705 37.1651 9.19404 37.0674 9.38965 36.6767L11.4436 33.1604C11.6392 32.8186 11.5414 32.3302 11.1502 32.1349Z" fill="white"/>
</svg>
