<svg width="56" height="48" viewBox="0 0 56 48" fill="none" xmlns="http://www.w3.org/2000/svg">
<path d="M51.2132 12.9733C49.101 12.9733 47.2528 14.4738 46.8421 16.5628H38.2467L39.5961 14.7681C42.5591 10.7961 41.767 5.17639 37.8066 2.20474C33.8462 -0.766917 28.2431 0.0274855 25.2801 3.9995C22.9039 7.17711 22.9039 11.561 25.2801 14.7681L26.6296 16.5628H9.11596C8.61724 14.1502 6.27036 12.5614 3.83547 13.0616C1.75261 13.4735 0.25647 15.3271 0.25647 17.4455V42.5428C0.25647 45.0142 2.25132 47.0149 4.71555 47.0149H51.1838C53.6481 47.0149 55.6429 45.0142 55.6429 42.5428V17.4455C55.7016 15.0035 53.7067 13.0027 51.2132 12.9733ZM46.7541 38.1H43.1751V34.5105H46.7541V38.1ZM46.7541 32.7157H43.1751C42.1777 32.7157 41.3856 33.5101 41.3856 34.5105V38.1C41.3856 39.1003 42.1777 39.8947 43.1751 39.8947H46.7541V41.6895H43.1751C42.1777 41.6895 41.3856 42.4839 41.3856 43.4843V45.279H39.5961V35.4226C39.5961 33.9514 38.3933 32.7451 36.9265 32.7451H28.8885C27.4217 32.7451 26.2189 33.9514 26.2189 35.4226V45.279H24.4294V33.6278C24.4294 33.1276 24.0187 32.7451 23.5493 32.7451H17.2714C16.7727 32.7451 16.3913 33.157 16.3913 33.6278V34.3339C16.3913 38.2177 15.2765 42.0132 13.223 45.279H10.9641C13.3403 41.866 14.6018 37.8058 14.6018 33.6278C14.6018 33.1276 14.1911 32.7451 13.7217 32.7451H9.20396V30.9504H11.8735C13.3403 30.9504 14.5431 29.744 14.5431 28.2729V25.7426C14.5431 24.9776 15.0418 24.2715 15.7752 24.0361L20.1463 22.565C21.6131 22.0648 22.5812 20.7114 22.5812 19.152V18.387H24.3707V19.8876C24.3707 21.8294 23.1386 23.5359 21.3198 24.1538L17.5647 25.419C16.8313 25.6543 16.3326 26.3605 16.3326 27.1255V28.2729C16.3326 29.744 17.5354 30.9504 19.0022 30.9504H36.9265C38.3933 30.9504 39.5961 29.744 39.5961 28.2729V18.4164H41.3856V28.2729C41.3856 29.744 42.5884 30.9504 44.0552 30.9504H46.7248L46.7541 32.7157ZM37.8066 45.2496H27.979V35.3931C27.979 34.8929 28.3897 34.5105 28.8591 34.5105H36.9265C37.4252 34.5105 37.8066 34.9224 37.8066 35.3931V45.2496ZM22.6105 45.2496H15.2765C17.1247 41.9543 18.1221 38.2765 18.1515 34.481H22.6105V45.2496ZM9.20396 29.1262V18.3576H20.821V19.1226C20.821 19.8876 20.3223 20.5937 19.5889 20.8291L15.2179 22.3002C13.7511 22.8004 12.783 24.1538 12.783 25.7132V28.2435C12.783 28.7437 12.3723 29.1262 11.9029 29.1262H9.20396ZM46.7541 29.1262H44.0845C43.5858 29.1262 43.2044 28.7143 43.2044 28.2435V18.387H46.7834L46.7541 29.1262ZM32.4674 2.23416C36.4278 2.23416 39.6254 5.44119 39.6254 9.41321C39.6254 10.9726 39.1267 12.4731 38.188 13.7089L32.4674 21.3587L26.7469 13.7089C24.3707 10.5313 25.0161 6.02964 28.1844 3.67585C29.4165 2.73434 30.9126 2.23416 32.4674 2.23416ZM35.137 22.8592C35.137 23.8302 33.9049 24.654 32.4674 24.654C31.03 24.654 29.7979 23.8302 29.7979 22.8592C29.8272 22.3885 30.0912 21.9471 30.4726 21.6823L31.7634 23.3888C32.0567 23.7713 32.6141 23.8596 33.0248 23.5653C33.0835 23.5065 33.1422 23.4477 33.2009 23.3888L34.4916 21.6823C34.8437 21.9471 35.1077 22.359 35.137 22.8592ZM29.3872 20.2406C28.5364 20.8291 28.0084 21.8 27.979 22.8592C27.979 24.8305 29.9739 26.4487 32.4381 26.4487C34.9023 26.4487 36.8972 24.8305 36.8972 22.8592C36.8679 21.8294 36.3398 20.8585 35.4891 20.2406L36.8972 18.3576H37.7773V28.2141C37.7773 28.7143 37.3666 29.0967 36.8972 29.0967H19.0315C18.5328 29.0967 18.1515 28.6848 18.1515 28.2141V27.0666L21.9065 25.8014C24.4587 24.9482 26.1895 22.5356 26.1895 19.8581V18.3576H27.979L29.3872 20.2406ZM2.0753 17.4749C2.0753 16.0038 3.30742 14.7975 4.77422 14.7975C6.24102 14.7975 7.41447 16.0038 7.4438 17.4749V38.9827C5.85965 37.7763 3.65945 37.7763 2.0753 38.9827V17.4749ZM2.0753 42.5722C2.0753 41.1011 3.30742 39.8947 4.77422 39.8947C6.24102 39.8947 7.41447 41.1011 7.4438 42.5722C7.4438 43.0724 7.85451 43.4548 8.32388 43.4548C8.8226 43.4548 9.20396 43.0429 9.20396 42.5722V34.5105H12.7536C12.5776 38.1 11.4042 41.5718 9.29197 44.4846L8.73459 45.279H4.74489C3.27808 45.2496 2.0753 44.0433 2.0753 42.5722ZM51.2425 45.2496H43.2044V43.4548H47.6635C48.1622 43.4548 48.5436 43.0429 48.5436 42.5722C48.5436 41.1011 49.7464 39.8947 51.2132 39.8947C52.68 39.8947 53.8828 41.1011 53.8828 42.5722C53.8828 44.0433 52.7093 45.2496 51.2425 45.2496C51.2132 45.2496 51.2132 45.2496 51.2425 45.2496ZM53.9121 38.9827C52.328 37.7763 50.1278 37.7763 48.5436 38.9827V17.4749C48.5436 16.0038 49.717 14.7681 51.2132 14.7681C52.68 14.7681 53.9121 15.945 53.9121 17.4455C53.9121 17.4749 53.9121 17.4749 53.9121 17.5043V38.9827Z" fill="white"/>
<path d="M32.6787 13.242C35.2916 13.242 37.4068 11.1267 37.4068 8.51374C37.4068 5.90078 35.2916 3.78552 32.6787 3.78552C30.0658 3.78552 27.9507 5.90078 27.9507 8.51374C27.9196 11.1267 30.0347 13.242 32.6787 13.242ZM32.6787 5.68303C34.234 5.68303 35.5093 6.95841 35.5093 8.51374C35.5093 10.0691 34.234 11.3445 32.6787 11.3445C31.1234 11.3445 29.8481 10.0691 29.8481 8.51374C29.817 6.95841 31.0923 5.68303 32.6787 5.68303Z" fill="white"/>
</svg>
