<svg width="24" height="25" viewBox="0 0 24 25" fill="none" xmlns="http://www.w3.org/2000/svg">
<path d="M21.0977 13.2483L23.3718 10.8854C23.6416 10.6051 23.6416 10.1508 23.3718 9.8706C23.1021 9.59033 22.6649 9.59033 22.3952 9.8706L20.1211 12.2336L17.8469 9.8706C17.5773 9.59033 17.14 9.59033 16.8703 9.8706C16.6006 10.1509 16.6006 10.6052 16.8703 10.8854L19.1444 13.2483L16.8703 15.6112C16.6006 15.8915 16.6006 16.3458 16.8703 16.626C17.14 16.9062 17.5773 16.9063 17.8469 16.626L20.1211 14.263L22.3952 16.626C22.6649 16.9062 23.1021 16.9063 23.3718 16.626C23.6416 16.3457 23.6416 15.8914 23.3718 15.6112L21.0977 13.2483Z" fill="url(#paint0_linear)"/>
<path d="M14.0004 0.20655C13.2645 -0.1516 12.4195 -0.0383089 11.7953 0.502266L5.96543 5.5502H2.07185C0.929401 5.5502 0 6.5159 0 7.70298V16.7921C0 17.9792 0.929401 18.9449 2.07185 18.9449H5.96548L11.7953 23.9928C12.4202 24.5339 13.2653 24.6464 14.0005 24.2886C14.7363 23.9305 15.1935 23.1834 15.1935 22.3391V2.15604C15.1934 1.31167 14.7363 0.5647 14.0004 0.20655ZM5.52488 17.5192H2.07185C1.69106 17.5192 1.38123 17.1878 1.38123 16.7921V7.70298C1.38123 7.30732 1.69106 6.98538 2.07185 6.98538H5.52488V17.5192ZM13.8122 22.339C13.8122 22.7624 13.5079 22.9435 13.4145 22.9888C13.3213 23.0343 12.9925 23.1613 12.6795 22.8902L6.90611 17.8912V6.60389L12.6795 1.6048C12.9925 1.33372 13.3213 1.46079 13.4145 1.5062C13.5078 1.5516 13.8122 1.73264 13.8122 2.15604V22.339Z" fill="url(#paint1_linear)"/>
<defs>
<linearGradient id="paint0_linear" x1="17.1638" y1="10.1497" x2="23.2337" y2="10.4843" gradientUnits="userSpaceOnUse">
<stop stop-color="#E3B469"/>
<stop offset="0.988636" stop-color="#FFE071"/>
</linearGradient>
<linearGradient id="paint1_linear" x1="1.09081" y1="1.67011" x2="14.4682" y2="2.14543" gradientUnits="userSpaceOnUse">
<stop stop-color="#E3B469"/>
<stop offset="0.988636" stop-color="#FFE071"/>
</linearGradient>
</defs>
</svg>
