<svg width="26" height="26" viewBox="0 0 26 26" fill="none" xmlns="http://www.w3.org/2000/svg">
<g clip-path="url(#clip0)">
<path d="M0 0V11.8696H11.8696V0H0ZM10.1739 10.1739H1.69564V1.69564H10.1739V10.1739Z" fill="white"/>
<path d="M8.47829 3.39133H3.39133V8.47829H8.47829V3.39133Z" fill="white"/>
<path d="M14.1304 0V11.8696H26V0H14.1304ZM24.3044 10.1739H15.8261V1.69564H24.3044V10.1739Z" fill="white"/>
<path d="M22.6087 3.39133H17.5217V8.47829H22.6087V3.39133Z" fill="white"/>
<path d="M0 14.1304V26H11.8696V14.1304H0ZM10.1739 24.3044H1.69564V15.8261H10.1739V24.3044Z" fill="white"/>
<path d="M8.47829 17.5217H3.39133V22.6087H8.47829V17.5217Z" fill="white"/>
<path d="M14.1304 14.1304V26H17.5217V24.3044H15.8261V20.913H17.5217V19.2174H15.8261V15.8261H17.5217V14.1304H14.1304Z" fill="white"/>
<path d="M26 14.1304H24.3044V15.8261H26V14.1304Z" fill="white"/>
<path d="M24.3044 24.3044H22.6087V26H26V18.087H24.3044V24.3044Z" fill="white"/>
<path d="M22.6087 14.1304H19.2174V15.8261H22.6087V14.1304Z" fill="white"/>
<path d="M22.6087 20.9131H20.913V19.2174H22.6087V17.5217H19.2174V22.6087H22.6087V20.9131Z" fill="white"/>
<path d="M20.913 24.3044H19.2174V26H20.913V24.3044Z" fill="white"/>
</g>
<defs>
<clipPath id="clip0">
<rect width="26" height="26" fill="white"/>
</clipPath>
</defs>
</svg>
