<svg width="64" height="50" viewBox="0 0 64 50" fill="none" xmlns="http://www.w3.org/2000/svg">
<rect width="64" height="50" fill="#E5E5E5"/>
<g id="guias y estilos" clip-path="url(#clip0)">
<rect width="2476" height="2444" transform="translate(-2030 -1925)" fill="white"/>
<path id="restaurant" d="M60.9846 40.1438H56.255V36.9167C56.255 36.4188 55.8475 36.0151 55.3447 36.0151H51.3508V33.6894H55.3447C55.8475 33.6894 56.255 33.2858 56.255 32.7878C56.255 20.6985 47.1731 10.6721 35.4121 9.04607V6.85229H36.0344C37.7194 6.85229 39.0903 5.4946 39.0903 3.82556C39.0903 2.15652 37.7194 0.798828 36.0344 0.798828H28.0651C26.3801 0.798828 25.0092 2.15652 25.0092 3.82556C25.0092 5.4946 26.3801 6.85229 28.0651 6.85229H28.6874V9.04607C16.9265 10.6722 7.8445 20.6985 7.8445 32.7878C7.8445 33.2858 8.25195 33.6894 8.75479 33.6894H12.7486V36.0151H8.75491C8.25207 36.0151 7.84462 36.4188 7.84462 36.9167V40.1438H3.11514C1.93711 40.1438 0.97876 41.093 0.97876 42.2598V47.1173C0.97876 48.2841 1.93711 49.2333 3.11514 49.2333H60.9847C62.1626 49.2333 63.1211 48.2841 63.1211 47.1173V42.2598C63.121 41.093 62.1626 40.1438 60.9846 40.1438ZM26.8299 3.82568C26.8299 3.15104 27.384 2.60215 28.0652 2.60215H36.0345C36.7156 2.60215 37.2698 3.15104 37.2698 3.82568C37.2698 4.50032 36.7157 5.04921 36.0345 5.04921H28.0652C27.3841 5.04909 26.8299 4.5002 26.8299 3.82568ZM30.5081 6.85229H33.5916V8.8637C33.0816 8.83173 32.5679 8.81369 32.0499 8.81369C31.5318 8.81369 31.0181 8.83185 30.5081 8.8637V6.85229ZM9.6652 37.8183H17.3639C17.8668 37.8183 18.2742 37.4146 18.2742 36.9167C18.2742 36.4188 17.8668 36.0151 17.3639 36.0151H14.5695V33.6894H43.8099C44.3128 33.6894 44.7202 33.2858 44.7202 32.7878C44.7202 32.2899 44.3128 31.8862 43.8099 31.8862H9.68352C10.1631 20.0778 20.012 10.6169 32.0499 10.6169C44.0877 10.6169 53.9367 20.0778 54.4162 31.8864H48.0622C47.5593 31.8864 47.1519 32.29 47.1519 32.788C47.1519 33.2859 47.5593 33.6896 48.0622 33.6896H49.5303V36.0152H21.6145C21.1116 36.0152 20.7042 36.4189 20.7042 36.9168C20.7042 37.4147 21.1116 37.8184 21.6145 37.8184H54.4344V40.144H9.6652V37.8183ZM61.3004 47.1173C61.3004 47.2898 61.1588 47.4301 60.9846 47.4301H3.11514C2.94097 47.4301 2.79933 47.2898 2.79933 47.1173V42.2598C2.79933 42.0873 2.94097 41.947 3.11514 41.947H60.9847C61.1589 41.947 61.3005 42.0873 61.3005 42.2598V47.1173H61.3004Z" fill="white"/>
</g>
<defs>
<clipPath id="clip0">
<rect width="2476" height="2444" fill="white" transform="translate(-2030 -1925)"/>
</clipPath>
</defs>
</svg>
