<svg width="63" height="50" viewBox="0 0 63 50" fill="none" xmlns="http://www.w3.org/2000/svg">
<path d="M60.5002 40.1053H55.7706V36.8782C55.7706 36.3803 55.3632 35.9766 54.8603 35.9766H50.8665V33.6509H54.8603C55.3632 33.6509 55.7706 33.2473 55.7706 32.7493C55.7706 20.66 46.6887 10.6336 34.9277 9.00755V6.81378H35.55C37.235 6.81378 38.6059 5.45609 38.6059 3.78705C38.6059 2.118 37.235 0.760315 35.55 0.760315H27.5807C25.8957 0.760315 24.5248 2.118 24.5248 3.78705C24.5248 5.45609 25.8957 6.81378 27.5807 6.81378H28.203V9.00755C16.4421 10.6337 7.36013 20.66 7.36013 32.7493C7.36013 33.2473 7.76757 33.6509 8.27041 33.6509H12.2643V35.9766H8.27053C7.76769 35.9766 7.36025 36.3803 7.36025 36.8782V40.1053H2.63077C1.45273 40.1053 0.494385 41.0545 0.494385 42.2213V47.0788C0.494385 48.2456 1.45273 49.1948 2.63077 49.1948H60.5003C61.6782 49.1948 62.6367 48.2456 62.6367 47.0788V42.2213C62.6366 41.0545 61.6782 40.1053 60.5002 40.1053ZM26.3455 3.78717C26.3455 3.11253 26.8996 2.56364 27.5809 2.56364H35.5501C36.2312 2.56364 36.7854 3.11253 36.7854 3.78717C36.7854 4.46181 36.2314 5.0107 35.5501 5.0107H27.5809C26.8997 5.01058 26.3455 4.46168 26.3455 3.78717ZM30.0237 6.81378H33.1073V8.82519C32.5973 8.79321 32.0835 8.77518 31.5655 8.77518C31.0475 8.77518 30.5337 8.79333 30.0237 8.82519V6.81378ZM9.18082 37.7798H16.8795C17.3824 37.7798 17.7898 37.3761 17.7898 36.8782C17.7898 36.3803 17.3824 35.9766 16.8795 35.9766H14.0851V33.6509H43.3255C43.8284 33.6509 44.2358 33.2473 44.2358 32.7493C44.2358 32.2514 43.8284 31.8477 43.3255 31.8477H9.19915C9.67869 20.0393 19.5276 10.5784 31.5655 10.5784C43.6034 10.5784 53.4523 20.0393 53.9318 31.8479H47.5778C47.0749 31.8479 46.6675 32.2515 46.6675 32.7495C46.6675 33.2474 47.0749 33.6511 47.5778 33.6511H49.0459V35.9767H21.1301C20.6272 35.9767 20.2198 36.3804 20.2198 36.8783C20.2198 37.3762 20.6272 37.7799 21.1301 37.7799H53.95V40.1054H9.18082V37.7798ZM60.816 47.0788C60.816 47.2513 60.6744 47.3916 60.5002 47.3916H2.63077C2.4566 47.3916 2.31496 47.2513 2.31496 47.0788V42.2213C2.31496 42.0488 2.4566 41.9085 2.63077 41.9085H60.5003C60.6745 41.9085 60.8161 42.0488 60.8161 42.2213V47.0788H60.816Z" fill="white"/>
</svg>
