<svg width="59" height="59" viewBox="0 0 59 59" fill="none" xmlns="http://www.w3.org/2000/svg">
<path d="M35.2857 7.68341C29.4365 7.68341 24.2372 11.4504 22.45 17.0358C22.255 17.5229 22.515 18.1075 23.0024 18.2698C23.0024 18.2698 23.0024 18.2698 23.0349 18.2698H23.3274C23.7498 18.3023 24.1723 18.01 24.3022 17.5879C25.8295 12.8142 30.2814 9.56688 35.3182 9.56688C35.8381 9.56688 36.293 9.14473 36.293 8.59267C36.2606 8.13804 35.8056 7.68341 35.2857 7.68341Z" fill="white"/>
<path d="M57.4802 48.2105C57.9676 48.243 58.4226 47.8533 58.4551 47.3662C58.4551 47.3337 58.4551 47.3013 58.4551 47.2688V25.0893C58.4875 24.6022 58.0976 24.1476 57.6102 24.1151C57.5777 24.1151 57.5452 24.1151 57.5127 24.1151H55.5955V11.5478C55.5955 11.5478 55.5955 11.5478 55.5955 11.5153C55.5955 10.7684 55.433 9.98904 55.108 9.30709C54.7831 8.78752 54.6206 8.17052 54.6206 7.58599V2.87731C54.6206 1.80568 53.7432 0.961365 52.7034 0.961365H48.8364C47.764 0.961365 46.9192 1.83815 46.9192 2.87731V7.61846C46.9192 7.84578 46.9192 8.04062 46.8542 8.26794C43.9296 5.63757 40.2251 4.07884 36.2932 3.88399V1.93557C36.2932 1.416 35.8707 0.961365 35.3183 0.961365C34.7659 0.961365 34.3434 1.38352 34.3434 1.93557V3.88399C25.5697 4.40357 18.5506 11.3854 17.9657 20.1533H17.9332C17.5758 20.1533 17.2508 20.3481 17.0559 20.6404C16.9259 20.9327 16.9259 21.2899 17.0559 21.6146L18.3232 24.1151H16.081L13.0914 14.1781C12.9289 13.7885 12.539 13.5287 12.1165 13.4962H6.94977C5.35749 12.0998 2.92033 12.2297 1.49053 13.8534C0.0607291 15.4771 0.223207 17.8801 1.84798 19.309C3.31028 20.6079 5.48747 20.6079 6.94977 19.309H8.54204L10.1668 25.3816V47.2688C10.1343 47.7559 10.5243 48.2105 11.0117 48.243C11.0442 48.243 11.0767 48.243 11.1092 48.243H14.0013V50.1914C11.6291 50.4512 9.90685 52.627 10.1993 54.9975C10.4593 57.3681 12.6365 59.0892 15.0086 58.797C17.3808 58.5047 19.1031 56.3614 18.8106 53.9909C18.7456 53.3089 18.4857 52.6594 18.1282 52.1074H50.4612C49.1289 54.0883 49.6488 56.8161 51.6635 58.1475C53.6457 59.4789 56.3753 58.9593 57.7077 56.946C59.04 54.9651 58.52 52.2373 56.5053 50.9059C55.9204 50.5162 55.2705 50.2889 54.5881 50.1914V48.243L57.4802 48.2105ZM53.2233 10.1189C53.3208 10.2813 53.3858 10.4437 53.4508 10.606H48.024C48.0565 10.5411 48.089 10.4761 48.1215 10.4112C48.1215 10.3463 48.154 10.2813 48.154 10.2164C48.1865 10.1839 48.1865 10.1514 48.219 10.1189C48.5764 9.33957 48.7714 8.46278 48.8039 7.61846V6.74168H52.6709V7.61846C52.6709 8.46278 52.8658 9.33957 53.2233 10.1189ZM53.6132 12.522V14.4379H47.829V12.522H53.6132ZM48.1865 24.0826C48.089 24.0177 47.959 23.9852 47.829 23.9852V16.3539H53.6132V24.0826H48.1865ZM48.8039 2.87731H52.6709V4.79326H48.8039V2.87731ZM35.2858 5.76747C39.3477 5.73499 43.2147 7.35868 46.1068 10.2164C46.0093 10.606 45.9443 11.0282 45.9118 11.4504C45.9118 11.4828 45.9118 11.5478 45.9118 11.5803V20.1533H19.8505C20.4354 12.0674 27.1619 5.79994 35.2858 5.76747ZM19.4605 22.1667H45.9118V24.0826H20.4354L19.4605 22.1667ZM2.46539 16.3864C2.46539 15.3147 3.31027 14.4704 4.38262 14.4704C4.90255 14.4704 5.35749 14.6652 5.74743 15.0225C5.77993 15.0549 5.81242 15.1199 5.84492 15.1524C6.07239 15.4121 6.23487 15.7369 6.29986 16.0941C6.29986 16.0941 6.29986 16.0941 6.29986 16.1266C6.29986 16.159 6.29986 16.224 6.33235 16.2565C6.33235 16.3214 6.33235 16.3539 6.33235 16.4188C6.33235 16.4838 6.33235 16.5162 6.33235 16.5812C6.33235 16.6137 6.33235 16.6786 6.29986 16.7111V16.7436C6.23487 17.1008 6.07239 17.4255 5.84492 17.6853C5.81242 17.7178 5.77993 17.7502 5.74743 17.8152C5.00004 18.5621 3.76521 18.5296 3.01782 17.7827C2.66037 17.3606 2.46539 16.8735 2.46539 16.3864ZM9.32193 17.3281H8.1521C8.21709 17.0034 8.24958 16.6786 8.24958 16.3539C8.24958 16.0291 8.21709 15.7044 8.1521 15.3797H11.4341L14.0338 24.0501H11.9216L10.2968 17.9776C10.1343 17.6204 9.74437 17.3606 9.32193 17.3281ZM12.1165 26.031H56.5053V46.2946H51.6635V45.3204C51.6635 44.8008 51.2411 44.3462 50.6886 44.3462C50.1362 44.3462 49.7138 44.7683 49.7138 45.3204V46.2946H47.7965V40.5143C47.7965 39.9947 47.3741 39.5401 46.8217 39.5401C46.2693 39.5401 45.8468 39.9622 45.8468 40.5143V46.2946H43.9296V44.3786C43.9296 43.8591 43.5071 43.4044 42.9547 43.4044C42.4023 43.4044 41.9799 43.8266 41.9799 44.3786V46.2946H27.4869V43.4044C27.4869 42.8849 27.0645 42.4302 26.512 42.4302C25.9596 42.4302 25.5372 42.8524 25.5372 43.4044V46.2946H23.6199V44.3786C23.6199 43.8591 23.1975 43.4044 22.6451 43.4044C22.0926 43.4044 21.6702 43.8266 21.6702 44.3786V46.2946H19.753V40.5143C19.753 39.9947 19.3305 39.5401 18.7781 39.5401C18.2582 39.5401 17.8032 39.9622 17.8032 40.5143V46.2946H15.886V45.3204C15.886 44.8008 15.4636 44.3462 14.9112 44.3462C14.3912 44.3462 13.9363 44.7683 13.9363 45.3204V46.2946H12.0191L12.1165 26.031ZM14.5212 56.881C13.1889 56.881 12.1165 55.8094 12.1165 54.478C12.1165 53.1465 13.1889 52.0749 14.5212 52.0749C15.8535 52.0749 16.9259 53.1465 16.9259 54.478C16.9259 55.8094 15.886 56.881 14.5537 56.881C14.5537 56.881 14.5537 56.881 14.5212 56.881ZM56.5053 54.478C56.5053 55.8094 55.433 56.881 54.1007 56.881C52.7683 56.881 51.696 55.8094 51.696 54.478C51.696 53.1465 52.7683 52.0749 54.1007 52.0749C55.433 52.0749 56.5053 53.1141 56.5053 54.4455V54.478ZM52.6709 50.1265H15.9835V48.2105H52.6709V50.1265Z" fill="white"/>
</svg>
