<svg width="61" height="61" viewBox="0 0 61 61" fill="none" xmlns="http://www.w3.org/2000/svg">
<rect width="61" height="61" fill="#E5E5E5"/>
<g id="guias y estilos" clip-path="url(#clip0)">
<rect width="2476" height="2444" transform="translate(-2034 -2202)" fill="white"/>
<g id="smart-home 1">
<g id="mobilephone home wifi click smarthome">
<path id="Vector" d="M17.3406 6.26663C16.3651 6.26395 15.3988 6.45477 14.4975 6.82804C13.5963 7.20132 12.778 7.74963 12.0901 8.44125C11.9211 8.6163 11.8275 8.85075 11.8296 9.09411C11.8317 9.33746 11.9294 9.57025 12.1014 9.74233C12.2735 9.91442 12.5063 10.012 12.7497 10.0141C12.993 10.0163 13.2275 9.92271 13.4025 9.75364C13.9196 9.23643 14.5336 8.82615 15.2093 8.54623C15.885 8.26631 16.6092 8.12224 17.3406 8.12224C18.072 8.12224 18.7962 8.26631 19.4719 8.54623C20.1476 8.82615 20.7616 9.23643 21.2787 9.75364C21.3643 9.84229 21.4667 9.91299 21.58 9.96164C21.6932 10.0103 21.815 10.0359 21.9382 10.037C22.0615 10.038 22.1837 10.0145 22.2977 9.96787C22.4118 9.92121 22.5154 9.85229 22.6026 9.76514C22.6897 9.678 22.7586 9.57437 22.8053 9.46031C22.852 9.34624 22.8755 9.22402 22.8744 9.10079C22.8733 8.97755 22.8477 8.85576 22.7991 8.74252C22.7504 8.62929 22.6797 8.52687 22.5911 8.44125C21.9032 7.74963 21.0849 7.20132 20.1837 6.82804C19.2824 6.45477 18.3161 6.26395 17.3406 6.26663Z" fill="white"/>
<path id="Vector_2" d="M17.3405 9.05103C16.1119 9.05132 14.9334 9.53782 14.0623 10.4042C13.9676 10.4876 13.8908 10.5894 13.8368 10.7035C13.7827 10.8175 13.7525 10.9414 13.7479 11.0675C13.7434 11.1936 13.7646 11.3194 13.8102 11.437C13.8559 11.5547 13.9251 11.6617 14.0136 11.7517C14.1021 11.8417 14.208 11.9127 14.3248 11.9604C14.4417 12.0081 14.567 12.0314 14.6932 12.029C14.8194 12.0266 14.9438 11.9985 15.0587 11.9464C15.1737 11.8942 15.2768 11.8192 15.3617 11.7259C15.8939 11.218 16.6012 10.9346 17.3368 10.9346C18.0724 10.9346 18.7798 11.218 19.3119 11.7259C19.49 11.8827 19.7214 11.9652 19.9585 11.9566C20.1957 11.9481 20.4205 11.849 20.5868 11.6798C20.7532 11.5106 20.8484 11.2841 20.853 11.0469C20.8575 10.8097 20.771 10.5797 20.6113 10.4042C19.7421 9.53963 18.5665 9.05328 17.3405 9.05103Z" fill="white"/>
<path id="Vector_3" d="M17.3406 15.5478C18.3658 15.5478 19.1969 14.7167 19.1969 13.6915C19.1969 12.6663 18.3658 11.8352 17.3406 11.8352C16.3155 11.8352 15.4844 12.6663 15.4844 13.6915C15.4844 14.7167 16.3155 15.5478 17.3406 15.5478Z" fill="white"/>
<path id="Vector_4" d="M53.538 2.55396H7.13116C5.90038 2.55396 4.72 3.04288 3.8497 3.91318C2.97941 4.78348 2.49048 5.96385 2.49048 7.19464V33.1825C2.49048 34.4133 2.97941 35.5936 3.8497 36.4639C4.72 37.3342 5.90038 37.8232 7.13116 37.8232H15.9949C16.0512 38.1684 16.1742 38.4994 16.3568 38.7977L26.2137 55.0494C26.4815 55.4847 26.6229 55.9861 26.622 56.4973V57.314C26.622 57.5602 26.7198 57.7963 26.8939 57.9703C27.0679 58.1444 27.304 58.2422 27.5502 58.2422C27.7963 58.2422 28.0324 58.1444 28.2065 57.9703C28.3805 57.7963 28.4783 57.5602 28.4783 57.314V56.4973C28.4789 55.6458 28.2445 54.8108 27.8008 54.0841L17.944 37.8417C17.8842 37.7475 17.8443 37.6422 17.8268 37.532C17.8092 37.4219 17.8144 37.3094 17.8419 37.2013C17.8758 37.0848 17.9338 36.9766 18.0122 36.8839C18.0905 36.7912 18.1874 36.7159 18.2966 36.663C18.6137 36.4767 18.9646 36.355 19.3289 36.305C19.6933 36.255 20.0639 36.2777 20.4195 36.3718C20.775 36.4659 21.1084 36.6294 21.4004 36.853C21.6923 37.0767 21.9371 37.3559 22.1206 37.6746C24.0325 41.0067 26.7427 45.7123 26.7427 45.7123C26.847 45.8885 27.0055 46.0261 27.1946 46.1048C27.3836 46.1834 27.593 46.1987 27.7915 46.1485C27.9893 46.0953 28.1639 45.9781 28.2881 45.8153C28.4123 45.6524 28.4792 45.4531 28.4783 45.2482V24.8292C28.4783 24.3369 28.6739 23.8648 29.022 23.5167C29.3701 23.1685 29.8423 22.973 30.3346 22.973C30.8269 22.973 31.299 23.1685 31.6472 23.5167C31.9953 23.8648 32.1909 24.3369 32.1909 24.8292V39.6794C32.1909 39.9256 32.2886 40.1617 32.4627 40.3357C32.6368 40.5098 32.8728 40.6076 33.119 40.6076C33.3651 40.6076 33.6012 40.5098 33.7753 40.3357C33.9493 40.1617 34.0471 39.9256 34.0471 39.6794V35.0387C34.0471 34.5464 34.2427 34.0743 34.5908 33.7262C34.9389 33.378 35.4111 33.1825 35.9034 33.1825C36.3957 33.1825 36.8679 33.378 37.216 33.7262C37.5641 34.0743 37.7597 34.5464 37.7597 35.0387V39.6794C37.7597 39.9256 37.8575 40.1617 38.0315 40.3357C38.2056 40.5098 38.4417 40.6076 38.6878 40.6076C38.934 40.6076 39.17 40.5098 39.3441 40.3357C39.5182 40.1617 39.6159 39.9256 39.6159 39.6794V35.0387C39.6159 34.5464 39.8115 34.0743 40.1596 33.7262C40.5078 33.378 40.9799 33.1825 41.4722 33.1825C41.9645 33.1825 42.4367 33.378 42.7848 33.7262C43.1329 34.0743 43.3285 34.5464 43.3285 35.0387V39.6794C43.3285 39.9256 43.4263 40.1617 43.6003 40.3357C43.7744 40.5098 44.0105 40.6076 44.2566 40.6076C44.5028 40.6076 44.7389 40.5098 44.9129 40.3357C45.087 40.1617 45.1848 39.9256 45.1848 39.6794V36.895C45.1848 36.4027 45.3803 35.9305 45.7285 35.5824C46.0766 35.2343 46.5487 35.0387 47.041 35.0387C47.5334 35.0387 48.0055 35.2343 48.3536 35.5824C48.7017 35.9305 48.8973 36.4027 48.8973 36.895V51.5503C48.8993 52.0986 48.7377 52.635 48.4332 53.091L47.8207 54.0099C47.3109 54.7702 47.0395 55.6653 47.041 56.5808V57.314C47.041 57.5602 47.1388 57.7963 47.3129 57.9703C47.4869 58.1444 47.723 58.2422 47.9692 58.2422C48.2153 58.2422 48.4514 58.1444 48.6255 57.9703C48.7995 57.7963 48.8973 57.5602 48.8973 57.314V56.5808C48.8953 56.0325 49.0569 55.4961 49.3614 55.0401L49.974 54.1212C50.4837 53.3609 50.7552 52.4657 50.7536 51.5503V37.8232H53.538C54.7688 37.8232 55.9492 37.3342 56.8195 36.4639C57.6898 35.5936 58.1787 34.4133 58.1787 33.1825V7.19464C58.1787 5.96385 57.6898 4.78348 56.8195 3.91318C55.9492 3.04288 54.7688 2.55396 53.538 2.55396ZM8.0593 35.9669H7.13116C6.39337 35.9647 5.68642 35.6706 5.16472 35.1489C4.64302 34.6272 4.34896 33.9203 4.34675 33.1825V7.19464C4.34896 6.45684 4.64302 5.7499 5.16472 5.2282C5.68642 4.7065 6.39337 4.41243 7.13116 4.41023H8.0593V35.9669ZM26.622 41.7863C25.9259 40.5704 25.0999 39.1411 24.3388 37.8232H26.622V41.7863ZM30.3346 21.1167C29.35 21.1167 28.4057 21.5078 27.7094 22.2041C27.0132 22.9003 26.622 23.8446 26.622 24.8292V28.5418H22.9095V20.5412L30.3346 16.2533L37.7597 20.5412V28.5418H34.0471V24.8292C34.0471 23.8446 33.656 22.9003 32.9597 22.2041C32.2635 21.5078 31.3192 21.1167 30.3346 21.1167ZM19.661 20.2721L18.7422 18.6757L30.3346 11.9745L41.927 18.6757L41.0082 20.2721L30.7986 14.3784C30.6568 14.2993 30.497 14.2578 30.3346 14.2578C30.1721 14.2578 30.0124 14.2993 29.8705 14.3784L19.661 20.2721ZM50.7536 35.9669H50.6236C50.4184 35.172 49.9555 34.4675 49.3072 33.9637C48.659 33.4599 47.862 33.1851 47.041 33.1825C46.299 33.1796 45.5738 33.403 44.962 33.8229C44.7535 33.2083 44.3861 32.6599 43.8971 32.2332C43.4082 31.8064 42.8151 31.5166 42.1779 31.3932C41.5408 31.2697 40.8824 31.317 40.2694 31.5302C39.6565 31.7433 39.1108 32.1149 38.6878 32.607C38.3429 32.2061 37.9157 31.8841 37.4352 31.6631C36.9547 31.4421 36.4323 31.3272 35.9034 31.3262C35.2491 31.3288 34.6076 31.5084 34.0471 31.846V30.3981H38.6878C38.934 30.3981 39.17 30.3003 39.3441 30.1262C39.5182 29.9522 39.6159 29.7161 39.6159 29.4699V21.6179L40.8782 22.3511C41.0929 22.4718 41.3464 22.5035 41.5842 22.4393C41.8219 22.375 42.025 22.2201 42.1498 22.0077L44.006 18.7963C44.1243 18.5812 44.1574 18.3294 44.0989 18.091C44.0325 17.8528 43.876 17.6497 43.6626 17.5248L30.7986 10.0997C30.6563 10.022 30.4967 9.98135 30.3346 9.98135C30.1724 9.98135 30.0129 10.022 29.8705 10.0997L17.0065 17.5248C16.7931 17.6497 16.6367 17.8528 16.5703 18.091C16.5117 18.3294 16.5448 18.5812 16.6631 18.7963L18.5194 22.0077C18.6436 22.2206 18.8467 22.3761 19.0847 22.4403C19.3227 22.5046 19.5764 22.4726 19.7909 22.3511L21.0532 21.6179V29.4699C21.0532 29.7161 21.151 29.9522 21.3251 30.1262C21.4991 30.3003 21.7352 30.3981 21.9813 30.3981H26.622V35.9669H23.1508C22.4314 35.162 21.4535 34.6334 20.386 34.4724C19.3185 34.3115 18.2283 34.5282 17.3035 35.0851C16.936 35.3045 16.6246 35.6063 16.394 35.9669H9.91557V4.41023H50.7536V35.9669ZM56.3224 33.1825C56.3202 33.9203 56.0261 34.6272 55.5044 35.1489C54.9827 35.6706 54.2758 35.9647 53.538 35.9669H52.6099V4.41023H53.538C54.2758 4.41243 54.9827 4.7065 55.5044 5.2282C56.0261 5.7499 56.3202 6.45684 56.3224 7.19464V33.1825Z" fill="white"/>
<path id="Vector_5" d="M6.20304 17.4041C5.95688 17.4041 5.72081 17.5018 5.54675 17.6759C5.37269 17.85 5.2749 18.086 5.2749 18.3322V22.0447C5.2749 22.2909 5.37269 22.527 5.54675 22.701C5.72081 22.8751 5.95688 22.9729 6.20304 22.9729C6.4492 22.9729 6.68527 22.8751 6.85933 22.701C7.03339 22.527 7.13118 22.2909 7.13118 22.0447V18.3322C7.13118 18.086 7.03339 17.85 6.85933 17.6759C6.68527 17.5018 6.4492 17.4041 6.20304 17.4041Z" fill="white"/>
<path id="Vector_6" d="M54.4662 17.4041C54.2201 17.4041 53.984 17.5018 53.8099 17.6759C53.6359 17.85 53.5381 18.086 53.5381 18.3322V22.0447C53.5381 22.2909 53.6359 22.527 53.8099 22.701C53.984 22.8751 54.2201 22.9729 54.4662 22.9729C54.7124 22.9729 54.9485 22.8751 55.1225 22.701C55.2966 22.527 55.3944 22.2909 55.3944 22.0447V18.3322C55.3944 18.086 55.2966 17.85 55.1225 17.6759C54.9485 17.5018 54.7124 17.4041 54.4662 17.4041Z" fill="white"/>
</g>
</g>
</g>
<defs>
<clipPath id="clip0">
<rect width="2476" height="2444" fill="white" transform="translate(-2034 -2202)"/>
</clipPath>
</defs>
</svg>
