<svg width="60" height="61" viewBox="0 0 60 61" fill="none" xmlns="http://www.w3.org/2000/svg">
<path d="M16.8563 6.22806C15.8808 6.22537 14.9145 6.41619 14.0132 6.78947C13.112 7.16274 12.2937 7.71106 11.6058 8.40268C11.4367 8.57773 11.3432 8.81218 11.3453 9.05553C11.3474 9.29889 11.445 9.53167 11.6171 9.70376C11.7892 9.87584 12.022 9.97345 12.2653 9.97557C12.5087 9.97768 12.7432 9.88413 12.9182 9.71506C13.4353 9.19785 14.0493 8.78757 14.725 8.50765C15.4007 8.22773 16.1249 8.08366 16.8563 8.08366C17.5877 8.08366 18.3119 8.22773 18.9876 8.50765C19.6633 8.78757 20.2772 9.19785 20.7944 9.71506C20.88 9.80371 20.9824 9.87442 21.0956 9.92306C21.2089 9.9717 21.3307 9.99731 21.4539 9.99838C21.5771 9.99945 21.6994 9.97597 21.8134 9.9293C21.9275 9.88263 22.0311 9.81371 22.1183 9.72657C22.2054 9.63942 22.2743 9.5358 22.321 9.42173C22.3677 9.30767 22.3911 9.18545 22.3901 9.06221C22.389 8.93897 22.3634 8.81719 22.3148 8.70395C22.2661 8.59071 22.1954 8.4883 22.1068 8.40268C21.4188 7.71106 20.6006 7.16274 19.6993 6.78947C18.7981 6.41619 17.8318 6.22537 16.8563 6.22806Z" fill="white"/>
<path d="M16.8563 9.01245C15.6277 9.01274 14.4491 9.49924 13.5781 10.3657C13.4833 10.449 13.4066 10.5509 13.3525 10.6649C13.2985 10.7789 13.2682 10.9028 13.2637 11.0289C13.2591 11.1551 13.2803 11.2808 13.326 11.3984C13.3717 11.5161 13.4409 11.6232 13.5294 11.7132C13.6178 11.8032 13.7237 11.8742 13.8406 11.9218C13.9574 11.9695 14.0828 11.9929 14.209 11.9904C14.3352 11.988 14.4595 11.9599 14.5745 11.9078C14.6894 11.8557 14.7925 11.7807 14.8775 11.6873C15.4096 11.1794 16.1169 10.896 16.8526 10.896C17.5882 10.896 18.2955 11.1794 18.8276 11.6873C19.0058 11.8441 19.2372 11.9266 19.4743 11.9181C19.7114 11.9095 19.9362 11.8104 20.1026 11.6412C20.2689 11.472 20.3642 11.2455 20.3687 11.0083C20.3733 10.7711 20.2868 10.5411 20.127 10.3657C19.2578 9.50105 18.0823 9.0147 16.8563 9.01245Z" fill="white"/>
<path d="M16.8563 15.5094C17.8815 15.5094 18.7125 14.6783 18.7125 13.6531C18.7125 12.628 17.8815 11.7969 16.8563 11.7969C15.8311 11.7969 15 12.628 15 13.6531C15 14.6783 15.8311 15.5094 16.8563 15.5094Z" fill="white"/>
<path d="M53.0536 2.5155H6.64679C5.416 2.5155 4.23563 3.00443 3.36533 3.87473C2.49503 4.74502 2.0061 5.9254 2.0061 7.15619V33.144C2.0061 34.3748 2.49503 35.5552 3.36533 36.4255C4.23563 37.2958 5.416 37.7847 6.64679 37.7847H15.5105C15.5669 38.1299 15.6898 38.4609 15.8725 38.7592L25.7293 55.0109C25.9972 55.4463 26.1386 55.9476 26.1377 56.4588V57.2756C26.1377 57.5217 26.2354 57.7578 26.4095 57.9319C26.5836 58.1059 26.8196 58.2037 27.0658 58.2037C27.312 58.2037 27.548 58.1059 27.7221 57.9319C27.8961 57.7578 27.9939 57.5217 27.9939 57.2756V56.4588C27.9946 55.6074 27.7601 54.7723 27.3164 54.0457L17.4596 37.8033C17.3998 37.7091 17.36 37.6037 17.3424 37.4936C17.3249 37.3835 17.33 37.2709 17.3575 37.1628C17.3914 37.0463 17.4494 36.9382 17.5278 36.8454C17.6061 36.7527 17.703 36.6775 17.8123 36.6245C18.1293 36.4382 18.4802 36.3165 18.8446 36.2666C19.2089 36.2166 19.5796 36.2393 19.9351 36.3333C20.2906 36.4274 20.624 36.591 20.916 36.8146C21.208 37.0382 21.4527 37.3175 21.6362 37.6362C23.5482 40.9682 26.2583 45.6739 26.2583 45.6739C26.3626 45.85 26.5212 45.9877 26.7102 46.0663C26.8992 46.1449 27.1086 46.1603 27.3071 46.1101C27.5049 46.0568 27.6795 45.9397 27.8037 45.7768C27.928 45.614 27.9948 45.4146 27.9939 45.2098V24.7908C27.9939 24.2985 28.1895 23.8263 28.5376 23.4782C28.8857 23.1301 29.3579 22.9345 29.8502 22.9345C30.3425 22.9345 30.8147 23.1301 31.1628 23.4782C31.5109 23.8263 31.7065 24.2985 31.7065 24.7908V39.641C31.7065 39.8871 31.8043 40.1232 31.9783 40.2973C32.1524 40.4713 32.3885 40.5691 32.6346 40.5691C32.8808 40.5691 33.1168 40.4713 33.2909 40.2973C33.465 40.1232 33.5628 39.8871 33.5628 39.641V35.0003C33.5628 34.508 33.7583 34.0358 34.1064 33.6877C34.4546 33.3396 34.9267 33.144 35.419 33.144C35.9113 33.144 36.3835 33.3396 36.7316 33.6877C37.0797 34.0358 37.2753 34.508 37.2753 35.0003V39.641C37.2753 39.8871 37.3731 40.1232 37.5471 40.2973C37.7212 40.4713 37.9573 40.5691 38.2034 40.5691C38.4496 40.5691 38.6857 40.4713 38.8597 40.2973C39.0338 40.1232 39.1316 39.8871 39.1316 39.641V35.0003C39.1316 34.508 39.3271 34.0358 39.6753 33.6877C40.0234 33.3396 40.4955 33.144 40.9878 33.144C41.4802 33.144 41.9523 33.3396 42.3004 33.6877C42.6485 34.0358 42.8441 34.508 42.8441 35.0003V39.641C42.8441 39.8871 42.9419 40.1232 43.116 40.2973C43.29 40.4713 43.5261 40.5691 43.7723 40.5691C44.0184 40.5691 44.2545 40.4713 44.4285 40.2973C44.6026 40.1232 44.7004 39.8871 44.7004 39.641V36.8566C44.7004 36.3642 44.896 35.8921 45.2441 35.544C45.5922 35.1959 46.0644 35.0003 46.5567 35.0003C47.049 35.0003 47.5211 35.1959 47.8693 35.544C48.2174 35.8921 48.4129 36.3642 48.4129 36.8566V51.5118C48.4149 52.0601 48.2533 52.5966 47.9489 53.0525L47.3363 53.9714C46.8265 54.7318 46.5551 55.6269 46.5567 56.5423V57.2756C46.5567 57.5217 46.6544 57.7578 46.8285 57.9319C47.0026 58.1059 47.2386 58.2037 47.4848 58.2037C47.731 58.2037 47.967 58.1059 48.1411 57.9319C48.3152 57.7578 48.4129 57.5217 48.4129 57.2756V56.5423C48.411 55.994 48.5725 55.4576 48.877 55.0016L49.4896 54.0828C49.9993 53.3224 50.2708 52.4273 50.2692 51.5118V37.7847H53.0536C54.2844 37.7847 55.4648 37.2958 56.3351 36.4255C57.2054 35.5552 57.6943 34.3748 57.6943 33.144V7.15619C57.6943 5.9254 57.2054 4.74502 56.3351 3.87473C55.4648 3.00443 54.2844 2.5155 53.0536 2.5155ZM7.57492 35.9284H6.64679C5.90899 35.9262 5.20205 35.6322 4.68035 35.1105C4.15864 34.5888 3.86458 33.8818 3.86238 33.144V7.15619C3.86458 6.41839 4.15864 5.71145 4.68035 5.18975C5.20205 4.66804 5.90899 4.37398 6.64679 4.37178H7.57492V35.9284ZM26.1377 41.7478C25.4416 40.532 24.6155 39.1027 23.8544 37.7847H26.1377V41.7478ZM29.8502 21.0782C28.8656 21.0782 27.9213 21.4694 27.225 22.1656C26.5288 22.8619 26.1377 23.8062 26.1377 24.7908V28.5033H22.4251V20.5028L29.8502 16.2148L37.2753 20.5028V28.5033H33.5628V24.7908C33.5628 23.8062 33.1716 22.8619 32.4754 22.1656C31.7791 21.4694 30.8348 21.0782 29.8502 21.0782ZM19.1766 20.2336L18.2578 18.6372L29.8502 11.9361L41.4426 18.6372L40.5238 20.2336L30.3143 14.34C30.1724 14.2609 30.0126 14.2194 29.8502 14.2194C29.6878 14.2194 29.528 14.2609 29.3861 14.34L19.1766 20.2336ZM50.2692 35.9284H50.1393C49.934 35.1335 49.4711 34.429 48.8228 33.9252C48.1746 33.4214 47.3777 33.1467 46.5567 33.144C45.8147 33.1412 45.0894 33.3646 44.4776 33.7844C44.2691 33.1699 43.9017 32.6214 43.4128 32.1947C42.9238 31.768 42.3307 31.4782 41.6936 31.3547C41.0565 31.2313 40.398 31.2785 39.7851 31.4917C39.1721 31.7049 38.6264 32.0764 38.2034 32.5686C37.8585 32.1676 37.4313 31.8457 36.9508 31.6247C36.4704 31.4036 35.9479 31.2887 35.419 31.2877C34.7647 31.2903 34.1233 31.4699 33.5628 31.8075V30.3596H38.2034C38.4496 30.3596 38.6857 30.2618 38.8597 30.0878C39.0338 29.9137 39.1316 29.6776 39.1316 29.4315V21.5794L40.3938 22.3127C40.6085 22.4334 40.862 22.465 41.0998 22.4008C41.3376 22.3366 41.5407 22.1816 41.6654 21.9692L43.5217 18.7579C43.6399 18.5427 43.6731 18.291 43.6145 18.0525C43.5481 17.8143 43.3917 17.6113 43.1782 17.4863L30.3143 10.0613C30.1719 9.98359 30.0124 9.9429 29.8502 9.9429C29.688 9.9429 29.5285 9.98359 29.3861 10.0613L16.5222 17.4863C16.3088 17.6113 16.1523 17.8143 16.0859 18.0525C16.0273 18.291 16.0605 18.5427 16.1788 18.7579L18.035 21.9692C18.1592 22.1822 18.3623 22.3376 18.6003 22.4019C18.8383 22.4662 19.092 22.4341 19.3066 22.3127L20.5688 21.5794V29.4315C20.5688 29.6776 20.6666 29.9137 20.8407 30.0878C21.0147 30.2618 21.2508 30.3596 21.497 30.3596H26.1377V35.9284H22.6664C21.947 35.1235 20.9692 34.595 19.9017 34.434C18.8342 34.273 17.744 34.4897 16.8192 35.0467C16.4516 35.266 16.1402 35.5679 15.9096 35.9284H9.4312V4.37178H50.2692V35.9284ZM55.838 33.144C55.8358 33.8818 55.5418 34.5888 55.0201 35.1105C54.4984 35.6322 53.7914 35.9262 53.0536 35.9284H52.1255V4.37178H53.0536C53.7914 4.37398 54.4984 4.66804 55.0201 5.18975C55.5418 5.71145 55.8358 6.41839 55.838 7.15619V33.144Z" fill="white"/>
<path d="M5.7186 17.3657C5.47245 17.3657 5.23637 17.4635 5.06231 17.6376C4.88825 17.8116 4.79047 18.0477 4.79047 18.2939V22.0064C4.79047 22.2526 4.88825 22.4886 5.06231 22.6627C5.23637 22.8368 5.47245 22.9345 5.7186 22.9345C5.96476 22.9345 6.20084 22.8368 6.37489 22.6627C6.54895 22.4886 6.64674 22.2526 6.64674 22.0064V18.2939C6.64674 18.0477 6.54895 17.8116 6.37489 17.6376C6.20084 17.4635 5.96476 17.3657 5.7186 17.3657Z" fill="white"/>
<path d="M53.9817 17.3657C53.7356 17.3657 53.4995 17.4635 53.3254 17.6376C53.1514 17.8116 53.0536 18.0477 53.0536 18.2939V22.0064C53.0536 22.2526 53.1514 22.4886 53.3254 22.6627C53.4995 22.8368 53.7356 22.9345 53.9817 22.9345C54.2279 22.9345 54.464 22.8368 54.638 22.6627C54.8121 22.4886 54.9099 22.2526 54.9099 22.0064V18.2939C54.9099 18.0477 54.8121 17.8116 54.638 17.6376C54.464 17.4635 54.2279 17.3657 53.9817 17.3657Z" fill="white"/>
</svg>
