<svg width="42" height="49" viewBox="0 0 42 49" fill="none" xmlns="http://www.w3.org/2000/svg">
<path d="M18.3042 16.8176C18.3042 22.5553 22.9179 27.2216 28.591 27.2216C34.264 27.2216 38.8777 22.5553 38.8777 16.8176C38.8777 11.0799 34.264 6.4135 28.591 6.4135C22.9179 6.4135 18.3042 11.0799 18.3042 16.8176ZM37.3241 16.8176C37.3241 21.6744 33.4166 25.6265 28.6145 25.6265C23.8124 25.6265 19.9049 21.6744 19.9049 16.8176C19.9049 11.9607 23.8124 8.00864 28.6145 8.00864C33.4166 8.00864 37.3241 11.9607 37.3241 16.8176ZM28.591 11.4608C29.0147 11.4608 29.3678 11.8179 29.3678 12.2464V12.5798C30.2858 12.9131 30.9449 13.794 30.9449 14.8177C30.9449 15.2462 30.5918 15.6034 30.1681 15.6034C29.7444 15.6034 29.3913 15.2462 29.3913 14.8177C29.3913 14.3892 29.0382 14.032 28.6145 14.032C28.1908 14.032 27.8377 14.3892 27.8377 14.8177V15.1272C27.8377 15.4843 28.0496 15.77 28.3791 15.8891L29.3207 16.1748C30.3094 16.4843 30.9685 17.389 30.9685 18.4365V18.746C30.9685 19.8888 30.1681 20.8411 29.1088 21.0792V21.3411C29.1088 21.7696 28.7557 22.1267 28.332 22.1267C27.9083 22.1267 27.5552 21.7696 27.5552 21.3411V20.8887C26.802 20.484 26.2841 19.6983 26.2841 18.7698C26.2841 18.3413 26.6372 17.9842 27.0609 17.9842C27.4846 17.9842 27.8377 18.3413 27.8377 18.7698C27.8377 19.1984 28.1908 19.5555 28.6145 19.5555C29.0382 19.5555 29.3913 19.1984 29.3913 18.7698V18.4603C29.3913 18.1032 29.1795 17.8175 28.8499 17.6985L27.9083 17.4128C26.9197 17.1033 26.2606 16.1986 26.2606 15.151V14.8415C26.2606 13.8178 26.9197 12.9369 27.8377 12.6036V12.2703C27.8142 11.8179 28.1673 11.4608 28.591 11.4608ZM41.3259 32.4594V42.5539C41.3259 45.6013 38.8542 48.1012 35.8411 48.1012H5.68698C2.67392 48.1012 0.202271 45.6013 0.202271 42.5539V3.74702C0.202271 2.00904 1.61464 0.580566 3.33303 0.580566H28.8028C30.5212 0.580566 31.9336 2.00904 31.9336 3.74702C31.9336 4.17556 31.5805 4.53268 31.1568 4.53268C30.7331 4.53268 30.38 4.17556 30.38 3.74702C30.38 2.86613 29.6738 2.15189 28.8028 2.15189H3.33303C2.46207 2.15189 1.75588 2.86613 1.75588 3.74702V42.5539C1.75588 44.7442 3.52135 46.506 5.66344 46.506H31.9807C30.9685 45.5061 30.3329 44.1014 30.3329 42.5539V30.1738C30.3329 29.7453 30.686 29.3881 31.1097 29.3881C31.5334 29.3881 31.8865 29.7453 31.8865 30.1738V42.5539C31.8865 44.7442 33.652 46.506 35.7941 46.506C37.9362 46.506 39.7016 44.7204 39.7016 42.5539V32.4594C39.7016 31.5785 38.9954 30.8642 38.1245 30.8642H34.8054C34.3817 30.8642 34.0286 30.5071 34.0286 30.0786C34.0286 29.65 34.3817 29.2929 34.8054 29.2929H38.1245C39.9135 29.2929 41.3259 30.7214 41.3259 32.4594ZM7.05228 21.8648C7.05228 21.4363 7.40537 21.0792 7.82908 21.0792H14.4908C14.9145 21.0792 15.2676 21.4363 15.2676 21.8648C15.2676 22.2934 14.9145 22.6505 14.4908 22.6505H7.82908C7.40537 22.6505 7.05228 22.2934 7.05228 21.8648ZM7.05228 12.9607C7.05228 12.5321 7.40537 12.175 7.82908 12.175H14.4908C14.9145 12.175 15.2676 12.5321 15.2676 12.9607C15.2676 13.3892 14.9145 13.7463 14.4908 13.7463H7.82908C7.40537 13.7463 7.05228 13.3892 7.05228 12.9607ZM25.0836 30.769C25.0836 31.1975 24.7305 31.5547 24.3068 31.5547H7.82908C7.40537 31.5547 7.05228 31.1975 7.05228 30.769C7.05228 30.3405 7.40537 29.9833 7.82908 29.9833H24.2832C24.7305 29.9833 25.0836 30.3405 25.0836 30.769ZM25.0836 39.1018C25.0836 39.5303 24.7305 39.8874 24.3068 39.8874H7.82908C7.40537 39.8874 7.05228 39.5303 7.05228 39.1018C7.05228 38.6732 7.40537 38.3161 7.82908 38.3161H24.2832C24.7305 38.3161 25.0836 38.6494 25.0836 39.1018Z" fill="white"/>
</svg>
