<svg width="30" height="28" viewBox="0 0 30 28" fill="none" xmlns="http://www.w3.org/2000/svg">
<path d="M16.3354 28C16.5467 27.9397 16.7696 27.8959 16.9691 27.8137C18.0371 27.3644 18.659 26.5973 18.659 25.5014C18.659 24.9753 18.8116 24.7014 19.3573 24.6027C19.5744 24.5644 19.7739 24.4493 19.9792 24.3671C20.1729 24.2849 20.3665 24.1973 20.6071 24.0932C20.7714 24.263 20.9298 24.4493 21.1176 24.6137C22.1327 25.5068 23.8343 25.4959 24.8376 24.5973C25.2953 24.1863 25.7412 23.7699 26.193 23.3479C27.3431 22.2685 27.3607 20.7123 26.2341 19.6055C26.0992 19.474 25.9466 19.3644 25.8293 19.2658C26.0816 18.674 26.3045 18.137 26.551 17.6055C26.5862 17.5342 26.7446 17.4685 26.8444 17.4685C27.4252 17.4685 27.9944 17.4411 28.5166 17.1616C29.4378 16.674 29.9366 15.9342 29.9835 14.9479C30.0129 14.3123 29.9953 13.6712 29.9894 13.0356C29.9777 11.7589 28.81 10.6247 27.4428 10.5479C27.4311 10.5479 27.4252 10.5425 27.4135 10.5479C26.7798 10.6521 26.4219 10.4164 26.3104 9.81918C26.2752 9.63836 26.1578 9.46849 26.0757 9.29315C25.9994 9.12877 25.9114 8.96438 25.7999 8.74521C25.9231 8.64658 26.0698 8.55342 26.193 8.43836C27.3666 7.33151 27.3724 5.76986 26.2106 4.65753C25.7882 4.25205 25.3598 3.85205 24.9256 3.45753C23.8577 2.48767 22.2148 2.46575 21.1176 3.40274C20.9357 3.55617 20.7948 3.74795 20.6657 3.88493C19.9968 3.63836 19.4101 3.42466 18.8292 3.19452C18.7588 3.16712 18.7177 3.03014 18.7001 2.93699C18.6297 2.51507 18.6473 2.07123 18.5065 1.68219C18.1309 0.652056 17.0924 0 15.9247 0C15.3086 0 14.6925 0 14.0823 0C12.5567 0.00547981 11.3362 1.06301 11.3186 2.48219C11.3128 3.0137 11.1602 3.27671 10.6087 3.40274C10.2625 3.47945 9.93974 3.64931 9.61702 3.80274C9.4586 3.87945 9.36472 3.86301 9.24736 3.74247C8.80143 3.28767 8.30268 2.89863 7.62204 2.78356C6.73016 2.63014 5.90282 2.78356 5.22218 3.35343C4.65302 3.82466 4.10733 4.32329 3.59685 4.84932C2.65216 5.80822 2.69324 7.36438 3.65553 8.30685C3.82569 8.47123 4.00758 8.61918 4.15427 8.74521C3.90783 9.32603 3.68486 9.85753 3.44429 10.3836C3.40909 10.4548 3.28587 10.526 3.19198 10.537C2.83406 10.5753 2.4644 10.5425 2.11821 10.6247C1.0327 10.8767 0.357925 11.5397 0.0645438 12.5479C0.0528086 12.5973 0.0234705 12.6466 0 12.6904C0 13.5671 0 14.4384 0 15.3151C0.0234705 15.3753 0.0469409 15.4301 0.0645438 15.4904C0.299248 16.2904 0.809731 16.8712 1.61946 17.2329C2.11234 17.4521 2.63456 17.474 3.16265 17.4575C3.33867 17.4521 3.41495 17.5068 3.47363 17.6658C3.60272 18.011 3.74941 18.3452 3.90197 18.6795C4.14841 19.2164 4.15427 19.211 3.72007 19.6384C2.65216 20.6795 2.63456 22.2027 3.69073 23.2548C4.14841 23.7151 4.62955 24.1589 5.11656 24.5863C6.18447 25.5288 7.86847 25.5178 8.91878 24.5589C9.0772 24.411 9.21803 24.2466 9.35885 24.0932C9.62876 24.2082 9.83413 24.3014 10.0454 24.389C10.2566 24.4767 10.4737 24.5589 10.6908 24.6411C11.2776 24.8603 11.2776 24.8603 11.2893 25.4411C11.3186 26.5808 11.923 27.3589 13.0202 27.8192C13.2021 27.8959 13.3958 27.9397 13.5894 28C14.4989 28 15.4142 28 16.3354 28ZM14.9918 26.3616C14.6984 26.3616 14.405 26.3671 14.1116 26.3616C13.4662 26.3507 13.0554 25.9671 13.0496 25.3644C13.0496 25.0082 13.0496 24.6521 13.0496 24.2959C13.0437 23.8137 12.8266 23.5397 12.322 23.4027C11.4243 23.1562 10.5558 22.8329 9.74024 22.4C9.30017 22.1644 8.93051 22.2192 8.57259 22.5479C8.26747 22.8274 7.97409 23.1233 7.65724 23.3918C7.26998 23.7205 6.71255 23.726 6.33116 23.3863C5.86175 22.9699 5.40408 22.5479 4.964 22.1096C4.5474 21.6932 4.57087 21.1836 4.99921 20.7671C5.26325 20.5096 5.53903 20.263 5.80307 20.011C6.19034 19.6438 6.24901 19.326 5.9791 18.8767C5.51556 18.1041 5.1635 17.2932 4.89946 16.4384C4.77624 16.0274 4.45352 15.8137 3.98998 15.8082C3.59098 15.8027 3.19198 15.8082 2.78712 15.8082C2.19449 15.8027 1.76029 15.4301 1.74268 14.8822C1.72508 14.3014 1.72508 13.7151 1.74268 13.1342C1.76029 12.5808 2.18862 12.2027 2.78125 12.1973C3.15091 12.1918 3.52057 12.1973 3.8961 12.1973C4.47699 12.1973 4.75864 12.011 4.91706 11.4849C5.16937 10.663 5.50969 9.87397 5.96737 9.12877C6.23141 8.69589 6.1786 8.3726 5.81481 8.01644C5.5449 7.75342 5.26325 7.50137 4.99334 7.23836C4.5474 6.80548 4.5474 6.28493 4.99334 5.85753C5.40994 5.45753 5.82654 5.06301 6.25488 4.67945C6.70082 4.27397 7.26411 4.26849 7.71005 4.67397C7.99756 4.93151 8.27334 5.20548 8.56085 5.46301C8.93638 5.80274 9.2767 5.85205 9.72264 5.61096C10.5441 5.16712 11.4125 4.83836 12.3279 4.60274C12.809 4.47671 13.0261 4.19178 13.032 3.72055C13.0378 3.37534 13.032 3.03014 13.032 2.67945C13.0378 2.07123 13.4192 1.67671 14.0647 1.65479C14.6573 1.63288 15.2558 1.63836 15.8484 1.65479C16.4939 1.67123 16.8929 2.07123 16.8987 2.66849C16.8987 3.0137 16.8987 3.35891 16.8987 3.70959C16.8987 4.20274 17.11 4.47123 17.6146 4.60822C18.5182 4.84932 19.3807 5.1726 20.1963 5.61096C20.6599 5.86301 20.9943 5.8137 21.3816 5.45753C21.675 5.18904 21.9566 4.90959 22.2559 4.64657C22.6607 4.29041 23.224 4.27945 23.623 4.63562C24.0807 5.0411 24.5325 5.46301 24.9667 5.89041C25.3833 6.30137 25.3716 6.82192 24.9491 7.23288C24.6792 7.49589 24.3976 7.74795 24.1218 8.01096C23.7404 8.38356 23.6876 8.69589 23.9634 9.1452C24.4269 9.90137 24.7672 10.6959 25.0254 11.5288C25.1721 12 25.4596 12.1973 25.9877 12.2027C26.3691 12.2027 26.7505 12.1973 27.1319 12.2027C27.7421 12.2082 28.1704 12.5863 28.188 13.1507C28.2056 13.7151 28.2056 14.2795 28.188 14.8438C28.1704 15.4466 27.748 15.8137 27.0967 15.8137C26.727 15.8137 26.3573 15.8137 25.9818 15.8137C25.4537 15.8192 25.1721 16.011 25.0195 16.4877C24.7555 17.326 24.4034 18.1315 23.9457 18.8986C23.6934 19.3151 23.7462 19.6384 24.1042 19.989C24.3799 20.2575 24.6733 20.5151 24.9491 20.7836C25.3774 21.2055 25.3833 21.726 24.9432 22.1479C24.5208 22.5534 24.0924 22.9534 23.6582 23.3479C23.224 23.7425 22.6607 23.7425 22.2207 23.3534C21.9332 23.0959 21.6574 22.8219 21.3699 22.5644C21.0061 22.2301 20.6364 22.1753 20.2022 22.4055C19.369 22.8493 18.4889 23.1836 17.5676 23.4247C17.1217 23.5397 16.8929 23.8356 16.887 24.2685C16.8811 24.6521 16.8929 25.0356 16.8811 25.4192C16.8694 25.9671 16.4469 26.3616 15.8602 26.3726C15.5961 26.3671 15.2969 26.3616 14.9918 26.3616Z" fill="white"/>
<path d="M14.9858 20.1095C18.4888 20.0821 21.4813 17.5232 21.5165 13.9451C21.5458 10.6684 18.5534 7.88484 14.9917 7.89032C11.3186 7.8958 8.37891 10.6574 8.45519 14.1753C8.51973 17.3588 11.3186 20.0766 14.9858 20.1095ZM10.2331 14.0547C10.1744 11.4903 12.4862 9.49032 15.0739 9.55607C17.7436 9.6273 19.8032 11.6383 19.7386 14.1369C19.6741 16.5917 17.4913 18.4985 14.8098 18.4383C12.3102 18.3889 10.1685 16.3342 10.2331 14.0547Z" fill="white"/>
</svg>
