<svg width="38" height="38" viewBox="0 0 38 38" fill="none" xmlns="http://www.w3.org/2000/svg">
<rect width="38" height="38" fill="#E5E5E5"/>
<g id="guias y estilos" clip-path="url(#clip0)">
<rect width="2476" height="2444" transform="translate(-2239 -2150)" fill="white"/>
<g id="air">
<path id="Vector 29" d="M7.77637 25.3489V30.0377" stroke="white" stroke-width="1.59358" stroke-linecap="round"/>
<path id="Vector 30" d="M13.2786 25.3489V28.4748" stroke="white" stroke-width="1.59358" stroke-linecap="round"/>
<path id="Vector 31" d="M18.7808 25.3489V30.0377" stroke="white" stroke-width="1.59358" stroke-linecap="round"/>
<path id="Vector 32" d="M24.283 25.3489V28.4748" stroke="white" stroke-width="1.59358" stroke-linecap="round"/>
<path id="Vector 33" d="M29.7852 25.3489V30.0377" stroke="white" stroke-width="1.59358" stroke-linecap="round"/>
<path id="Rectangle 43" d="M32.3069 8.26969C33.0404 8.26969 33.6349 8.86425 33.6349 9.59767V20.9775C33.6349 21.711 33.0404 22.3055 32.3069 22.3055H5.25514C4.52172 22.3055 3.92716 21.711 3.92716 20.9775V9.59767C3.92716 8.86425 4.52172 8.26969 5.25514 8.26969H32.3069Z" stroke="white" stroke-width="1.59358"/>
<path id="Vector 26" d="M4.01074 18.4136H33.6492" stroke="white" stroke-width="1.59358"/>
<path id="Vector 27" d="M21.373 15.2876H23.7206" stroke="white" stroke-width="1.59358" stroke-linecap="round"/>
<path id="Vector 28" d="M27.3887 15.2876H29.7363" stroke="white" stroke-width="1.59358" stroke-linecap="round"/>
</g>
</g>
<defs>
<clipPath id="clip0">
<rect width="2476" height="2444" fill="white" transform="translate(-2239 -2150)"/>
</clipPath>
</defs>
</svg>
