<svg width="57" height="48" viewBox="0 0 57 48" fill="none" xmlns="http://www.w3.org/2000/svg">
<rect width="57" height="48" fill="#E5E5E5"/>
<g id="guias y estilos" clip-path="url(#clip0)">
<rect width="2476" height="2444" transform="translate(-1899 -2067)" fill="white"/>
<g id="location">
<path id="Trazado 56" d="M51.6974 13.0119C49.5852 13.0119 47.7371 14.5124 47.3264 16.6014H38.7309L40.0804 14.8066C43.0433 10.8346 42.2512 5.21497 38.2909 2.24331C34.3305 -0.728343 28.7273 0.0660598 25.7644 4.03807C23.3882 7.21569 23.3882 11.5996 25.7644 14.8066L27.1138 16.6014H9.60021C9.10149 14.1888 6.75461 12.6 4.31972 13.1002C2.23686 13.5121 0.740723 15.3657 0.740723 17.4841V42.5813C0.740723 45.0528 2.73557 47.0535 5.1998 47.0535H51.6681C54.1323 47.0535 56.1272 45.0528 56.1272 42.5813V17.4841C56.1859 15.042 54.191 13.0413 51.6974 13.0119ZM47.2384 38.1386H43.6594V34.549H47.2384V38.1386ZM47.2384 32.7543H43.6594C42.6619 32.7543 41.8699 33.5487 41.8699 34.549V38.1386C41.8699 39.1389 42.6619 39.9333 43.6594 39.9333H47.2384V41.7281H43.6594C42.6619 41.7281 41.8699 42.5225 41.8699 43.5228V45.3176H40.0804V35.4611C40.0804 33.99 38.8776 32.7837 37.4108 32.7837H29.3727C27.9059 32.7837 26.7031 33.99 26.7031 35.4611V45.3176H24.9136V33.6664C24.9136 33.1662 24.5029 32.7837 24.0335 32.7837H17.7556C17.2569 32.7837 16.8755 33.1956 16.8755 33.6664V34.3725C16.8755 38.2562 15.7608 42.0517 13.7073 45.3176H11.4484C13.8246 41.9046 15.0861 37.8443 15.0861 33.6664C15.0861 33.1662 14.6753 32.7837 14.206 32.7837H9.68822V30.9889H12.3578C13.8246 30.9889 15.0274 29.7826 15.0274 28.3115V25.7812C15.0274 25.0162 15.5261 24.3101 16.2595 24.0747L20.6306 22.6036C22.0974 22.1034 23.0655 20.75 23.0655 19.1906V18.4256H24.855V19.9261C24.855 21.868 23.6228 23.5745 21.804 24.1924L18.049 25.4575C17.3156 25.6929 16.8169 26.399 16.8169 27.164V28.3115C16.8169 29.7826 18.0197 30.9889 19.4865 30.9889H37.4108C38.8776 30.9889 40.0804 29.7826 40.0804 28.3115V18.455H41.8699V28.3115C41.8699 29.7826 43.0726 30.9889 44.5394 30.9889H47.209L47.2384 32.7543ZM38.2909 45.2882H28.4633V35.4317C28.4633 34.9315 28.874 34.549 29.3434 34.549H37.4108C37.9095 34.549 38.2909 34.9609 38.2909 35.4317V45.2882ZM23.0948 45.2882H15.7608C17.6089 41.9929 18.6064 38.3151 18.6357 34.5196H23.0948V45.2882ZM9.68822 29.1647V18.3962H21.3053V19.1611C21.3053 19.9261 20.8066 20.6323 20.0732 20.8676L15.7021 22.3388C14.2353 22.8389 13.2672 24.1924 13.2672 25.7518V28.2821C13.2672 28.7823 12.8565 29.1647 12.3871 29.1647H9.68822ZM47.2384 29.1647H44.5688C44.0701 29.1647 43.6887 28.7528 43.6887 28.2821V18.4256H47.2677L47.2384 29.1647ZM32.9517 2.27273C36.9121 2.27273 40.1097 5.47977 40.1097 9.45178C40.1097 11.0112 39.611 12.5117 38.6722 13.7474L32.9517 21.3972L27.2312 13.7474C24.855 10.5698 25.5003 6.06822 28.6686 3.71443C29.9008 2.77291 31.3969 2.27273 32.9517 2.27273ZM35.6213 22.8978C35.6213 23.8687 34.3892 24.6925 32.9517 24.6925C31.5142 24.6925 30.2821 23.8687 30.2821 22.8978C30.3115 22.427 30.5755 21.9857 30.9569 21.7209L32.2476 23.4274C32.541 23.8099 33.0984 23.8981 33.5091 23.6039C33.5678 23.5451 33.6264 23.4862 33.6851 23.4274L34.9759 21.7209C35.3279 21.9857 35.5919 22.3976 35.6213 22.8978ZM29.8714 20.2792C29.0207 20.8676 28.4926 21.8386 28.4633 22.8978C28.4633 24.8691 30.4581 26.4873 32.9224 26.4873C35.3866 26.4873 37.3814 24.8691 37.3814 22.8978C37.3521 21.868 36.8241 20.8971 35.9733 20.2792L37.3814 18.3962H38.2615V28.2527C38.2615 28.7528 37.8508 29.1353 37.3814 29.1353H19.5158C19.0171 29.1353 18.6357 28.7234 18.6357 28.2527V27.1052L22.3907 25.84C24.943 24.9868 26.6738 22.5741 26.6738 19.8967V18.3962H28.4633L29.8714 20.2792ZM2.55956 17.5135C2.55956 16.0424 3.79167 14.8361 5.25847 14.8361C6.72528 14.8361 7.89872 16.0424 7.92805 17.5135V39.0212C6.34391 37.8149 4.1437 37.8149 2.55956 39.0212V17.5135ZM2.55956 42.6108C2.55956 41.1396 3.79167 39.9333 5.25847 39.9333C6.72528 39.9333 7.89872 41.1396 7.92805 42.6108C7.92805 43.1109 8.33876 43.4934 8.80814 43.4934C9.30685 43.4934 9.68822 43.0815 9.68822 42.6108V34.549H13.2379C13.0619 38.1386 11.8884 41.6104 9.77623 44.5232L9.21884 45.3176H5.22914C3.76234 45.2882 2.55956 44.0819 2.55956 42.6108ZM51.7268 45.2882H43.6887V43.4934H48.1478C48.6465 43.4934 49.0279 43.0815 49.0279 42.6108C49.0279 41.1396 50.2306 39.9333 51.6974 39.9333C53.1642 39.9333 54.367 41.1396 54.367 42.6108C54.367 44.0819 53.1936 45.2882 51.7268 45.2882C51.6974 45.2882 51.6974 45.2882 51.7268 45.2882ZM54.3964 39.0212C52.8122 37.8149 50.612 37.8149 49.0279 39.0212V17.5135C49.0279 16.0424 50.2013 14.8066 51.6974 14.8066C53.1642 14.8066 54.3964 15.9835 54.3964 17.4841C54.3964 17.5135 54.3964 17.5135 54.3964 17.5429V39.0212Z" fill="white"/>
<path id="Trazado 57" d="M33.163 13.2804C35.7758 13.2804 37.891 11.1652 37.891 8.5522C37.891 5.93923 35.7758 3.82397 33.163 3.82397C30.5501 3.82397 28.4349 5.93923 28.4349 8.5522C28.4038 11.1652 30.519 13.2804 33.163 13.2804ZM33.163 5.72148C34.7182 5.72148 35.9936 6.99686 35.9936 8.5522C35.9936 10.1075 34.7182 11.3829 33.163 11.3829C31.6077 11.3829 30.3323 10.1075 30.3323 8.5522C30.3012 6.99686 31.5766 5.72148 33.163 5.72148Z" fill="white"/>
</g>
</g>
<defs>
<clipPath id="clip0">
<rect width="2476" height="2444" fill="white" transform="translate(-1899 -2067)"/>
</clipPath>
</defs>
</svg>
