<svg width="28" height="28" viewBox="0 0 28 28" fill="none" xmlns="http://www.w3.org/2000/svg">
<path d="M0 6.90466C0.544107 4.78452 2.27024 3.54621 3.75246 2.17656C4.61553 1.36978 6.04147 1.38854 6.9233 2.17656C8.34923 3.47116 9.70012 4.82205 10.9947 6.24798C11.839 7.1861 11.7452 8.46194 10.9009 9.49386C10.3943 10.113 9.81269 10.6759 9.2123 11.22C8.85581 11.539 8.762 11.8204 9.04344 12.2519C10.6945 14.9725 12.8897 17.1677 15.6102 18.8375C16.0793 19.1189 16.3795 19.0439 16.7172 18.6499C17.1863 18.1245 17.6929 17.6179 18.237 17.1489C19.4753 16.0982 20.8262 16.117 21.9894 17.2239C23.1527 18.3309 24.2972 19.4754 25.4042 20.6574C26.5674 21.8958 26.5487 23.3029 25.4229 24.5788C24.71 25.3668 23.9782 26.1173 23.209 26.8302C21.6142 28.2749 19.738 28.1624 17.8617 27.6558C13.8841 26.5676 10.5069 24.3911 7.56121 21.5768C4.22152 18.3872 1.5948 14.691 0.318959 10.1693C0.225148 9.81282 0.112574 9.4751 0 9.11862C0 8.38689 0 7.63639 0 6.90466ZM20.0006 26.5488C20.7511 26.1923 21.5767 25.9297 22.2521 25.4418C22.9651 24.9165 23.5279 24.1848 24.1471 23.5281C24.7663 22.9089 24.7663 22.271 24.1659 21.6518C23.1152 20.5824 22.0832 19.5317 20.995 18.4998C20.2821 17.8243 19.813 17.8619 19.0813 18.5748C18.4621 19.1752 17.843 19.7944 17.2238 20.4135C16.7923 20.8451 16.3045 21.0327 15.7041 20.7137C12.0266 18.8 9.19353 16.0419 7.26102 12.3457C6.88577 11.614 7.03587 10.9948 7.63626 10.432C8.27418 9.85035 8.89334 9.23119 9.49373 8.61203C9.98155 8.08669 10.0378 7.50506 9.49373 6.96095C8.40552 5.85397 7.29854 4.76576 6.21033 3.67755C5.60993 3.07715 5.00954 3.11468 4.40914 3.65878C3.86504 4.16537 3.37722 4.747 2.81435 5.23482C1.65108 6.21046 1.4447 7.4863 1.68861 8.85594C1.81994 9.60644 2.02633 10.3757 2.30776 11.0887C4.65305 16.9613 8.68695 21.3329 14.1843 24.4099C15.9855 25.4043 17.843 26.1923 20.0006 26.5488Z" fill="white"/>
<path d="M16.2107 0C16.9049 0.24391 17.5991 0.450296 18.2745 0.73173C23.4905 2.77682 26.6613 6.56681 27.8996 12.0079C28.0122 12.5332 27.9746 13.0586 27.3555 13.2087C26.7176 13.3588 26.4174 12.9835 26.286 12.3644C24.9539 6.58557 21.3891 3.00197 15.6103 1.66985C14.5971 1.42594 14.4283 0.900591 15.0849 0C15.4789 0 15.8354 0 16.2107 0Z" fill="white"/>
<path d="M22.9651 12.7772C22.7775 12.9648 22.5148 13.4151 22.2521 13.4151C21.9331 13.4151 21.4829 13.1149 21.2952 12.8147C21.0326 12.3831 21.0326 11.8015 20.8449 11.3137C19.8318 8.94964 18.0681 7.41113 15.5727 6.77322C14.9723 6.62312 14.3156 6.49178 14.5033 5.70376C14.6721 4.93451 15.2913 5.00956 15.9292 5.17842C19.6629 6.17282 21.9331 8.5744 22.8525 12.3081C22.8525 12.4019 22.89 12.477 22.9651 12.7772Z" fill="white"/>
</svg>
