<svg viewBox="0 0 31 31" fill="none" xmlns="http://www.w3.org/2000/svg">
<path d="M20.3867 4.53135C19.7617 4.29256 19.0619 4.60516 18.8231 5.22988C18.5842 5.85448 18.8969 6.55459 19.5215 6.79344C23.8019 8.43033 26.7617 12.5563 26.7617 17.3162C26.7617 23.526 21.7097 28.578 15.5 28.578C9.29025 28.578 4.23828 23.526 4.23828 17.3162C4.23828 12.5537 7.19951 8.43002 11.4781 6.79362C12.1027 6.55471 12.4154 5.8546 12.1765 5.23C11.9375 4.60534 11.2373 4.29274 10.6129 4.53153C5.39987 6.5254 1.81641 11.5456 1.81641 17.3162C1.81641 24.8799 7.93709 30.9998 15.5 30.9998C23.0636 30.9998 29.1836 24.8791 29.1836 17.3162C29.1836 11.5431 25.5979 6.52431 20.3867 4.53135Z" fill="#e9bc77"/>
<path d="M15.5 0C14.8312 0 14.2891 0.542137 14.2891 1.21094V13.0691C14.2891 13.7379 14.8312 14.28 15.5 14.28C16.1688 14.28 16.7109 13.7378 16.7109 13.0691V1.21094C16.7109 0.542137 16.1688 0 15.5 0Z" fill="#e9bc77"/>
</svg>
