<svg width="58" height="58" viewBox="0 0 58 58" fill="none" xmlns="http://www.w3.org/2000/svg">
<rect width="58" height="58" fill="#E5E5E5"/>
<g id="guias y estilos" clip-path="url(#clip0)">
<rect width="2476" height="2444" transform="translate(-1893 -1924)" fill="white"/>
<g id="roomservice">
<g id="roomservice_2">
<g id="Grupo 11">
<path id="Trazado 58" d="M34.7702 6.72217C28.921 6.72217 23.7217 10.4891 21.9345 16.0746C21.7395 16.5617 21.9995 17.1462 22.4869 17.3086C22.4869 17.3086 22.4869 17.3086 22.5194 17.3086H22.8119C23.2343 17.3411 23.6568 17.0488 23.7867 16.6266C25.314 11.853 29.7659 8.60564 34.8027 8.60564C35.3226 8.60564 35.7775 8.18348 35.7775 7.63143C35.7451 7.1768 35.2901 6.72217 34.7702 6.72217Z" fill="white"/>
<path id="Trazado 59" d="M56.9647 47.2492C57.4521 47.2816 57.9071 46.892 57.9395 46.4049C57.9395 46.3724 57.9395 46.3399 57.9395 46.3074V24.1279C57.972 23.6408 57.5821 23.1862 57.0947 23.1537C57.0622 23.1537 57.0297 23.1537 56.9972 23.1537H55.08V10.5864C55.08 10.5864 55.08 10.5864 55.08 10.5539C55.08 9.80704 54.9175 9.02768 54.5925 8.34573C54.2676 7.82615 54.1051 7.20915 54.1051 6.62463V1.91595C54.1051 0.844316 53.2277 0 52.1879 0H48.3209C47.2485 0 46.4037 0.876789 46.4037 1.91595V6.6571C46.4037 6.88442 46.4037 7.07926 46.3387 7.30657C43.4141 4.67621 39.7096 3.11747 35.7777 2.92263V0.97421C35.7777 0.454631 35.3552 0 34.8028 0C34.2504 0 33.8279 0.422158 33.8279 0.97421V2.92263C25.0542 3.44221 18.0351 10.424 17.4502 19.1919H17.4177C17.0603 19.1919 16.7353 19.3868 16.5403 19.679C16.4104 19.9713 16.4104 20.3285 16.5403 20.6532L17.8077 23.1537H15.5655L12.5759 13.2168C12.4134 12.8271 12.0235 12.5673 11.601 12.5348H6.43426C4.84199 11.1385 2.40483 11.2684 0.975026 12.892C-0.454774 14.5157 -0.292296 16.9188 1.33248 18.3476C2.79477 19.6466 4.97197 19.6466 6.43426 18.3476H8.02654L9.65131 24.4202V46.3074C9.61882 46.7945 10.0088 47.2492 10.4962 47.2817C10.5287 47.2817 10.5612 47.2817 10.5937 47.2817H13.4858V49.2301C11.1136 49.4899 9.39135 51.6656 9.68381 54.0362C9.94377 56.4067 12.121 58.1279 14.4931 57.8356C16.8653 57.5433 18.5876 55.4001 18.2951 53.0295C18.2301 52.3475 17.9701 51.6981 17.6127 51.146H49.9457C48.6134 53.1269 49.1333 55.8547 51.148 57.1861C53.1302 58.5175 55.8598 57.998 57.1922 55.9846C58.5245 54.0037 58.0045 51.2759 55.9898 49.9445C55.4049 49.5548 54.755 49.3275 54.0726 49.2301V47.2817L56.9647 47.2492ZM52.7078 9.15757C52.8053 9.31994 52.8703 9.48231 52.9353 9.64468H47.5085C47.541 9.57973 47.5735 9.51478 47.606 9.44983C47.606 9.38489 47.6385 9.31994 47.6385 9.25499C47.671 9.22252 47.671 9.19004 47.7035 9.15757C48.0609 8.3782 48.2559 7.50142 48.2884 6.6571V5.78031H52.1554V6.6571C52.1554 7.50142 52.3503 8.3782 52.7078 9.15757ZM53.0977 11.5606V13.4766H47.3135V11.5606H53.0977ZM47.671 23.1212C47.5735 23.0563 47.4435 23.0238 47.3135 23.0238V15.3925H53.0977V23.1212H47.671ZM48.2884 1.91595H52.1554V3.83189H48.2884V1.91595ZM34.7703 4.8061C38.8322 4.77363 42.6992 6.39731 45.5913 9.25499C45.4938 9.64468 45.4288 10.0668 45.3963 10.489C45.3963 10.5215 45.3963 10.5864 45.3963 10.6189V19.1919H19.335C19.9199 11.106 26.6464 4.83858 34.7703 4.8061ZM18.945 21.2053H45.3963V23.1212H19.9199L18.945 21.2053ZM1.94989 15.425C1.94989 14.3534 2.79477 13.509 3.86712 13.509C4.38705 13.509 4.84198 13.7039 5.23193 14.0611C5.26442 14.0936 5.29692 14.1585 5.32942 14.191C5.55688 14.4508 5.71936 14.7755 5.78435 15.1327C5.78435 15.1327 5.78435 15.1327 5.78435 15.1652C5.78435 15.1977 5.78435 15.2626 5.81685 15.2951C5.81685 15.36 5.81685 15.3925 5.81685 15.4575C5.81685 15.5224 5.81685 15.5549 5.81685 15.6198C5.81685 15.6523 5.81685 15.7173 5.78435 15.7497V15.7822C5.71936 16.1394 5.55688 16.4641 5.32942 16.7239C5.29692 16.7564 5.26442 16.7889 5.23193 16.8538C4.48453 17.6007 3.24971 17.5683 2.50231 16.8214C2.14486 16.3992 1.94989 15.9121 1.94989 15.425ZM8.80643 16.3667H7.63659C7.70158 16.042 7.73408 15.7173 7.73408 15.3925C7.73408 15.0678 7.70158 14.743 7.63659 14.4183H10.9186L13.5183 23.0888H11.4061L9.78129 17.0162C9.61882 16.659 9.22887 16.3992 8.80643 16.3667ZM11.601 25.0697H55.9898V45.3332H51.148V44.359C51.148 43.8394 50.7256 43.3848 50.1731 43.3848C49.6207 43.3848 49.1983 43.807 49.1983 44.359V45.3332H47.281V39.5529C47.281 39.0333 46.8586 38.5787 46.3062 38.5787C45.7538 38.5787 45.3313 39.0009 45.3313 39.5529V45.3332H43.4141V43.4173C43.4141 42.8977 42.9916 42.4431 42.4392 42.4431C41.8868 42.4431 41.4644 42.8652 41.4644 43.4173V45.3332H26.9714V42.4431C26.9714 41.9235 26.549 41.4689 25.9965 41.4689C25.4441 41.4689 25.0217 41.891 25.0217 42.4431V45.3332H23.1044V43.4173C23.1044 42.8977 22.682 42.4431 22.1296 42.4431C21.5771 42.4431 21.1547 42.8652 21.1547 43.4173V45.3332H19.2375V39.5529C19.2375 39.0333 18.815 38.5787 18.2626 38.5787C17.7427 38.5787 17.2877 39.0009 17.2877 39.5529V45.3332H15.3705V44.359C15.3705 43.8394 14.9481 43.3848 14.3956 43.3848C13.8757 43.3848 13.4208 43.807 13.4208 44.359V45.3332H11.5036L11.601 25.0697ZM14.0057 55.9196C12.6734 55.9196 11.601 54.848 11.601 53.5166C11.601 52.1852 12.6734 51.1135 14.0057 51.1135C15.338 51.1135 16.4104 52.1852 16.4104 53.5166C16.4104 54.848 15.3705 55.9196 14.0382 55.9196C14.0382 55.9196 14.0382 55.9196 14.0057 55.9196ZM55.9898 53.5166C55.9898 54.848 54.9175 55.9196 53.5852 55.9196C52.2528 55.9196 51.1805 54.848 51.1805 53.5166C51.1805 52.1852 52.2528 51.1135 53.5852 51.1135C54.9175 51.1135 55.9898 52.1527 55.9898 53.4841V53.5166ZM52.1554 49.1651H15.468V47.2492H52.1554V49.1651Z" fill="white"/>
</g>
</g>
</g>
</g>
<defs>
<clipPath id="clip0">
<rect width="2476" height="2444" fill="white" transform="translate(-1893 -1924)"/>
</clipPath>
</defs>
</svg>
