<svg width="36" height="30" viewBox="0 0 36 30" fill="none" xmlns="http://www.w3.org/2000/svg">
<path d="M0 13.0768C0.105888 12.3525 0.203631 11.6203 0.333955 10.896C0.594602 9.46335 1.01815 8.07848 1.68606 6.7732C1.91413 6.32749 2.34583 6.19219 2.67164 6.4628C2.93229 6.67769 2.97301 6.94034 2.8264 7.24278C2.15034 8.57194 1.71865 9.98865 1.49872 11.4531C0.936702 15.0824 1.18106 18.6242 2.74495 22.0148C2.81825 22.1819 2.94858 22.3968 2.8997 22.5321C2.81011 22.7549 2.63906 23.0017 2.42728 23.0972C2.11776 23.2325 1.84082 23.0335 1.71865 22.739C1.35211 21.8317 0.928557 20.9403 0.6842 20.0091C0.399117 18.9028 0.276938 17.7567 0.0814524 16.6265C0.0570167 16.4991 0.032581 16.3718 0 16.2445C0 15.1859 0 14.1273 0 13.0768Z" fill="white"/>
<path d="M20.7948 0C28.0034 0.0557133 34.1856 4.95053 35.5377 11.8988C36.5152 16.8971 35.106 21.2904 31.5221 25.0073C31.2045 25.3336 30.8786 25.3734 30.6017 25.1267C30.3085 24.872 30.3003 24.5377 30.6343 24.1955C32.0027 22.7629 33.1349 21.1711 33.7702 19.3007C35.4074 14.4934 34.6743 10.0523 31.3918 6.10459C29.1356 3.39055 26.1463 1.83854 22.5949 1.35304C15.5493 0.397952 8.76432 5.06991 7.29818 11.8669C6.11712 17.3746 8.32448 22.7629 13.1057 25.9226C15.6633 27.6099 18.506 28.3342 21.5931 28.1671C24.0041 28.0318 26.2277 27.3314 28.264 26.0659C28.3455 26.0181 28.4269 25.9704 28.5084 25.9226C28.826 25.7634 29.0948 25.851 29.2985 26.1057C29.5102 26.3763 29.4532 26.6787 29.2007 26.8857C28.9075 27.1165 28.5817 27.3075 28.2559 27.4905C22.5461 30.6821 15.2642 29.8146 10.483 25.4053C7.90093 23.0335 6.34519 20.1364 5.8972 16.7299C5.32703 12.3524 6.49995 8.44455 9.47296 5.08583C11.7618 2.49914 14.6615 0.907331 18.1069 0.294484C18.9785 0.135304 19.8907 0.0955085 20.7948 0Z" fill="white"/>
<path d="M21.0228 3.26323C26.4557 3.24731 31.3347 7.25071 32.3447 12.7743C33.4606 18.8868 29.2821 24.8004 23.0266 25.9624C16.6977 27.1483 10.5644 23.1927 9.30185 17.0085C8.48732 13.0449 9.59508 9.57475 12.4703 6.64582C12.8369 6.27971 13.1708 6.23991 13.4559 6.50256C13.7329 6.76521 13.7166 7.12337 13.3663 7.47357C12.0224 8.81069 11.0938 10.3707 10.6051 12.1853C9.30185 17.0483 12.0386 22.3092 16.7955 24.1796C22.9125 26.5912 29.7057 23.0574 31.0985 16.7538C32.0189 12.5912 29.8849 7.93519 26.0403 5.84196C22.7659 4.06709 19.4345 4.00342 16.0624 5.57135C15.8832 5.6589 15.704 5.75441 15.5167 5.834C15.1746 5.97726 14.8406 5.8738 14.6859 5.57931C14.5229 5.29279 14.6207 4.93463 14.9628 4.77545C15.6063 4.46505 16.2497 4.1626 16.9176 3.92383C18.1476 3.47812 19.4427 3.28711 21.0228 3.26323Z" fill="white"/>
<path d="M24.4439 13.809C24.4439 13.3871 24.4439 13.0051 24.4439 12.5594C22.6519 12.8698 20.8844 13.1723 19.0843 13.4827C19.0843 14.1194 19.0843 14.7402 19.0843 15.361C19.0843 16.0614 19.0273 16.7618 19.0925 17.4622C19.2635 19.1972 17.1702 20.3354 15.6877 19.8658C14.58 19.5076 14.1972 18.3615 14.8732 17.4065C15.4841 16.5469 16.4697 16.1728 17.8462 16.2922C17.8462 16.1489 17.8462 16.0057 17.8462 15.8624C17.8462 14.4218 17.8462 12.9812 17.8462 11.5486C17.8462 10.689 18.1802 10.299 19.0517 10.1478C20.803 9.83741 22.5542 9.52701 24.3054 9.2166C25.1037 9.0813 25.6738 9.46334 25.682 10.2035C25.7064 11.9068 25.7146 13.61 25.682 15.3132C25.6575 16.3559 24.729 17.2552 23.5642 17.4224C23.1977 17.4781 22.7986 17.4781 22.4402 17.4065C21.2428 17.1518 20.7704 15.9261 21.479 14.9392C22.0655 14.1273 22.9044 13.7533 23.9226 13.7771C24.0855 13.7771 24.2403 13.7931 24.4439 13.809ZM19.1006 12.249C20.8926 11.9386 22.6682 11.6282 24.4357 11.3258C24.4357 11.0153 24.4357 10.7447 24.4357 10.4264C22.6356 10.7368 20.8681 11.0472 19.1006 11.3496C19.1006 11.66 19.1006 11.9306 19.1006 12.249ZM16.2824 18.7675C16.9095 18.7197 17.3494 18.5685 17.667 18.1864C17.9603 17.8363 17.8707 17.5656 17.4227 17.4781C16.8932 17.3667 16.429 17.5497 16.0624 17.9158C15.9158 18.0591 15.7611 18.3456 15.8181 18.473C15.8914 18.6401 16.1846 18.7117 16.2824 18.7675ZM23.0185 16.332C23.5235 16.2524 23.9389 16.0932 24.2403 15.743C24.3543 15.6077 24.4683 15.361 24.4113 15.2257C24.3543 15.0904 24.0936 14.9949 23.9145 14.971C23.4665 14.9153 23.0511 15.0665 22.7334 15.3689C22.5705 15.5281 22.4239 15.8067 22.4565 15.9977C22.4727 16.1489 22.8148 16.2285 23.0185 16.332Z" fill="white"/>
<path d="M4.1785 10.0443C4.71608 10.0443 4.9523 10.4582 4.76496 10.9516C4.56947 11.4928 4.31697 12.0341 4.20293 12.5912C3.77938 14.5969 3.85269 16.5707 4.74052 18.465C4.91971 18.839 4.81383 19.1892 4.49616 19.3484C4.19479 19.4996 3.82825 19.3564 3.63277 18.9823C2.94042 17.6452 2.7205 16.2046 2.71235 14.7322C2.70421 13.2677 2.94857 11.843 3.59204 10.5059C3.72236 10.2433 3.88527 10.0284 4.1785 10.0443Z" fill="white"/>
</svg>
