<?xml version="1.0"?>
<svg xmlns="http://www.w3.org/2000/svg" xmlns:xlink="http://www.w3.org/1999/xlink" xmlns:svgjs="http://svgjs.com/svgjs" version="1.1" width="512" height="512" x="0" y="0" viewBox="0 0 512 512" style="enable-background:new 0 0 512 512" xml:space="preserve" class=""><g transform="matrix(0.68,0,0,0.68,81.92016357421875,81.91999999999999)">
<g xmlns="http://www.w3.org/2000/svg">
	<g>
		<rect x="285.551" y="60" width="15" height="15" fill="#ffffff" data-original="#000000" style="" class=""/>
	</g>
</g>
<g xmlns="http://www.w3.org/2000/svg">
	<g>
		<rect x="260.551" y="60" width="15" height="15" fill="#ffffff" data-original="#000000" style="" class=""/>
	</g>
</g>
<g xmlns="http://www.w3.org/2000/svg">
	<g>
		<rect x="235.54" y="60" width="15" height="15" fill="#ffffff" data-original="#000000" style="" class=""/>
	</g>
</g>
<g xmlns="http://www.w3.org/2000/svg">
	<g>
		<rect x="210.54" y="60" width="15" height="15" fill="#ffffff" data-original="#000000" style="" class=""/>
	</g>
</g>
<g xmlns="http://www.w3.org/2000/svg">
	<g>
		<path d="M452.949,455.5H59.053l-16.394,16.394V512h426.683v-40.106L452.949,455.5z M454.342,497H57.66v-18.894l7.606-7.606h381.47    l7.606,7.606V497z" fill="#ffffff" data-original="#000000" style="" class=""/>
	</g>
</g>
<g xmlns="http://www.w3.org/2000/svg">
	<g>
		<rect x="425.081" y="191.19" width="15" height="251.81" fill="#ffffff" data-original="#000000" style="" class=""/>
	</g>
</g>
<g xmlns="http://www.w3.org/2000/svg">
	<g>
		<rect x="71.923" y="191.19" width="15" height="251.81" fill="#ffffff" data-original="#000000" style="" class=""/>
	</g>
</g>
<g xmlns="http://www.w3.org/2000/svg">
	<g>
		<rect x="400.081" y="201.67" width="15" height="15" fill="#ffffff" data-original="#000000" style="" class=""/>
	</g>
</g>
<g xmlns="http://www.w3.org/2000/svg">
	<g>
		<rect x="400.081" y="251.67" width="15" height="64.67" fill="#ffffff" data-original="#000000" style="" class=""/>
	</g>
</g>
<g xmlns="http://www.w3.org/2000/svg">
	<g>
		<rect x="400.081" y="226.67" width="15" height="15" fill="#ffffff" data-original="#000000" style="" class=""/>
	</g>
</g>
<g xmlns="http://www.w3.org/2000/svg">
	<g>
		<path d="M302.696,247.389c2.301-4.155,3.612-8.93,3.612-14.006c0-15.994-13.012-29.006-29.006-29.006    c-8.52,0-16.194,3.693-21.506,9.562c-5.311-5.869-12.985-9.562-21.506-9.562c-15.994,0-29.006,13.012-29.006,29.006    c0,5.076,1.311,9.851,3.612,14.006h-29.971v156.145H335.07V247.389H302.696z M231.812,388.535h-37.887V262.389h37.887V388.535z     M220.284,233.383c0-7.723,6.283-14.006,14.006-14.006s14.006,6.283,14.006,14.006v14.006H234.29    C226.566,247.389,220.284,241.106,220.284,233.383z M267.183,388.535h-20.371v-0.001V262.389h20.371V388.535z M263.296,247.389    v-14.006c0-7.723,6.283-14.006,14.006-14.006c7.723,0,14.006,6.283,14.006,14.006c0,7.723-6.283,14.006-14.006,14.006H263.296z     M320.07,388.534h-37.887V262.389h37.887V388.534z" fill="#ffffff" data-original="#000000" style="" class=""/>
	</g>
</g>
<g xmlns="http://www.w3.org/2000/svg">
	<g>
		<rect x="293.541" y="325.35" width="15" height="50.685" fill="#ffffff" data-original="#000000" style="" class=""/>
	</g>
</g>
<g xmlns="http://www.w3.org/2000/svg">
	<g>
		<rect x="293.541" y="275.35" width="15" height="15" fill="#ffffff" data-original="#000000" style="" class=""/>
	</g>
</g>
<g xmlns="http://www.w3.org/2000/svg">
	<g>
		<rect x="293.541" y="300.35" width="15" height="15" fill="#ffffff" data-original="#000000" style="" class=""/>
	</g>
</g>
<g xmlns="http://www.w3.org/2000/svg">
	<g>
		<path d="M44.652,87.5v69.964l21.221,21.221h31.086l13.72-13.721l13.721,13.721h31.086l13.721-13.721l13.72,13.721h31.086    l13.721-13.721l13.72,13.721h31.086l13.72-13.721l13.721,13.721h31.086l13.721-13.721l13.72,13.721h31.086l13.721-13.721    l13.72,13.721h31.086l21.22-21.221V87.5H44.652z M103.178,151.251l-12.432,12.434H72.084l-12.434-12.434v-11.408h43.527V151.251z     M161.706,151.251l-12.433,12.434h-18.66l-12.434-12.434v-11.408h43.527V151.251z M220.233,151.251L207.8,163.685h-18.661    l-12.433-12.434v-11.408h43.527V151.251z M278.761,151.251l-12.433,12.434h-18.661l-12.433-12.434v-11.408h43.527V151.251z     M337.288,151.251l-12.433,12.434h-18.66l-12.434-12.434v-11.408h43.527V151.251z M395.815,151.251l-12.433,12.434h-18.661    l-12.433-12.434v-11.408h43.527V151.251z M454.342,151.251l-12.433,12.434h-18.661l-12.433-12.434v-11.408h43.527V151.251z     M454.342,124.843H59.652V102.5h394.69V124.843z" fill="#ffffff" data-original="#000000" style="" class=""/>
	</g>
</g>
<g xmlns="http://www.w3.org/2000/svg">
	<g>
		<polygon points="107.102,0 107.102,75 122.102,75 122.102,15 389.831,15 389.831,75 404.831,75 404.831,0   " fill="#ffffff" data-original="#000000" style="" class=""/>
	</g>
</g>
<g xmlns="http://www.w3.org/2000/svg">
	<g>
		<rect x="194.511" y="31.5" width="15" height="15" fill="#ffffff" data-original="#000000" style="" class=""/>
	</g>
</g>
<g xmlns="http://www.w3.org/2000/svg">
	<g>
		<rect x="169.511" y="31.5" width="15" height="15" fill="#ffffff" data-original="#000000" style="" class=""/>
	</g>
</g>
<g xmlns="http://www.w3.org/2000/svg">
	<g>
		<rect x="219.511" y="31.5" width="122.57" height="15" fill="#ffffff" data-original="#000000" style="" class=""/>
	</g>
</g>
<g xmlns="http://www.w3.org/2000/svg">
	<g>
		<rect x="431.501" y="106.17" width="15" height="15" fill="#ffffff" data-original="#000000" style="" class=""/>
	</g>
</g>
<g xmlns="http://www.w3.org/2000/svg">
	<g>
		<rect x="336.001" y="106.17" width="60.5" height="15" fill="#ffffff" data-original="#000000" style="" class=""/>
	</g>
</g>
<g xmlns="http://www.w3.org/2000/svg">
	<g>
		<rect x="406.501" y="106.17" width="15" height="15" fill="#ffffff" data-original="#000000" style="" class=""/>
	</g>
</g>
<g xmlns="http://www.w3.org/2000/svg">
</g>
<g xmlns="http://www.w3.org/2000/svg">
</g>
<g xmlns="http://www.w3.org/2000/svg">
</g>
<g xmlns="http://www.w3.org/2000/svg">
</g>
<g xmlns="http://www.w3.org/2000/svg">
</g>
<g xmlns="http://www.w3.org/2000/svg">
</g>
<g xmlns="http://www.w3.org/2000/svg">
</g>
<g xmlns="http://www.w3.org/2000/svg">
</g>
<g xmlns="http://www.w3.org/2000/svg">
</g>
<g xmlns="http://www.w3.org/2000/svg">
</g>
<g xmlns="http://www.w3.org/2000/svg">
</g>
<g xmlns="http://www.w3.org/2000/svg">
</g>
<g xmlns="http://www.w3.org/2000/svg">
</g>
<g xmlns="http://www.w3.org/2000/svg">
</g>
<g xmlns="http://www.w3.org/2000/svg">
</g>
</g></svg>
